<?xml version="1.0" encoding="UTF-8"?>
<!DOCTYPE svg PUBLIC "-//W3C//DTD SVG 1.1//EN" "http://www.w3.org/Graphics/SVG/1.1/DTD/svg11.dtd">
<!-- Creator: CorelDRAW 2019 (64-Bit) -->
<svg xmlns="http://www.w3.org/2000/svg" xml:space="preserve" width="116.983mm" height="23.8186mm" version="1.1" style="shape-rendering:geometricPrecision; text-rendering:geometricPrecision; image-rendering:optimizeQuality; fill-rule:evenodd; clip-rule:evenodd"
viewBox="0 0 6386.61 1300.36"
 xmlns:xlink="http://www.w3.org/1999/xlink"
 xmlns:xodm="http://www.corel.com/coreldraw/odm/2003">
 <defs>
  <style type="text/css">
   <![CDATA[
    .str0 {stroke:black;stroke-width:10.92;stroke-miterlimit:22.9256}
    .fil4 {fill:#FEFEFE}
    .fil1 {fill:black;fill-rule:nonzero}
    .fil2 {fill:white;fill-rule:nonzero}
    .fil3 {fill:url(#id0);fill-rule:nonzero}
    .fil0 {fill:url(#id1);fill-rule:nonzero}
   ]]>
  </style>
  <linearGradient id="id0" gradientUnits="userSpaceOnUse" x1="650.18" y1="109.16" x2="650.18" y2="1191.19">
   <stop offset="0" style="stop-opacity:1; stop-color:#DA4A00"/>
   <stop offset="0.321569" style="stop-opacity:1; stop-color:#CA2500"/>
   <stop offset="1" style="stop-opacity:1; stop-color:#BA0000"/>
  </linearGradient>
  <linearGradient id="id1" gradientUnits="objectBoundingBox" xlink:href="#id0" x1="43.6344%" y1="25.8216%" x2="43.6344%" y2="95.07%">
  </linearGradient>
 </defs>
 <g id="Warstwa_x0020_1">
  <metadata id="CorelCorpID_0Corel-Layer"/>
  <polygon class="fil0" points="1986.69,543.72 1880.87,543.72 1839.88,714.38 1782.99,543.72 1713.27,543.72 1656.38,714.38 1615.4,543.72 1509.58,543.72 1608.67,872.81 1688.8,872.81 1748.13,692.36 1807.46,872.81 1887.59,872.81 "/>
  <path id="1" class="fil0" d="M2278.46 765.15c0,-52.61 -29.97,-93.59 -99.09,-100.32l-50.77 -4.89c-22.63,-2.45 -21.41,-14.68 -21.41,-18.35 0,-7.34 7.95,-18.97 32.42,-18.97 25.69,0 53.22,3.06 69.73,19.58l61.78 -61.78c-32.42,-32.42 -75.85,-40.37 -129.68,-40.37 -65.45,0 -130.89,36.09 -130.89,108.88 0,64.22 38.53,89.92 95.42,95.42l50.77 4.9c19.58,1.83 23.86,11.62 23.86,20.79 0,17.13 -28.14,21.41 -42.82,21.41 -17.13,0 -52.6,0 -80.13,-27.53l-64.84 64.84c45.26,45.26 93.59,47.71 143.13,47.71 76.46,0 142.52,-33.64 142.52,-111.32z"/>
  <path id="2" class="fil0" d="M2616.72 708.27c0,-48.32 1.83,-105.82 -30.58,-138.24 -18.97,-18.97 -48.33,-29.97 -80.13,-29.97 -34.25,0 -55.66,10.39 -75.85,30.58l0 -26.91 -97.25 0 0 435.51 100.31 0 0 -130.29c18.35,18.35 40.98,27.53 73.4,27.53 31.81,0 60.56,-11.01 79.52,-29.97 32.42,-32.42 30.58,-89.92 30.58,-138.24zm-100.32 0c0,47.71 -4.28,77.68 -41.6,77.68 -37.31,0 -41.6,-29.97 -41.6,-77.68 0,-47.71 4.29,-77.68 41.6,-77.68 37.32,0 41.6,29.97 41.6,77.68z"/>
  <path id="3" class="fil0" d="M2953.14 708.27c0,-64.22 -8.57,-96.03 -36.09,-126 -19.57,-20.8 -52.6,-42.21 -105.82,-42.21 -53.21,0 -86.25,21.41 -105.82,42.21 -27.53,29.97 -36.09,61.78 -36.09,126 0,64.84 8.56,96.03 36.09,126 19.57,20.8 52.61,42.21 105.82,42.21 53.22,0 86.25,-21.41 105.82,-42.21 27.53,-29.97 36.09,-61.17 36.09,-126zm-100.32 0c0,32.42 -1.83,55.66 -14.68,68.51 -6.11,6.11 -14.68,9.17 -26.91,9.17 -12.23,0 -20.79,-3.06 -26.91,-9.17 -12.84,-12.85 -14.68,-36.09 -14.68,-68.51 0,-32.42 1.84,-55.66 14.68,-68.51 6.12,-6.11 14.68,-9.17 26.91,-9.17 12.23,0 20.8,3.06 26.91,9.17 12.85,12.85 14.68,36.09 14.68,68.51z"/>
  <path id="4" class="fil0" d="M3169.67 872.81l0 -84.41 -34.87 0c-13.45,0 -20.18,-7.23 -20.18,-20.08l0 -330.41 -100.32 0 0 337.75c0,45.17 29.36,97.16 102.15,97.16l53.22 0z"/>
  <path id="5" class="fil0" d="M3507.32 872.81l0 -210.42c0,-34.86 -4.89,-66.06 -33.03,-94.2 -17.74,-17.74 -42.82,-28.14 -74.01,-28.14 -26.3,0 -56.28,10.39 -76.46,30.58l0 -26.91 -97.87 0 0 329.08 100.31 0 0 -196.96c0,-37.93 26.91,-45.26 40.37,-45.26 13.46,0 40.37,7.34 40.37,45.26l0 196.96 100.31 0z"/>
  <path id="6" class="fil0" d="M3852.31 708.27c0,-64.22 -8.57,-96.03 -36.09,-126 -19.57,-20.8 -52.6,-42.21 -105.82,-42.21 -53.21,0 -86.25,21.41 -105.82,42.21 -27.53,29.97 -36.09,61.78 -36.09,126 0,64.84 8.56,96.03 36.09,126 19.57,20.8 52.61,42.21 105.82,42.21 53.22,0 86.25,-21.41 105.82,-42.21 27.53,-29.97 36.09,-61.17 36.09,-126zm-100.32 0c0,32.42 -1.83,55.66 -14.68,68.51 -6.11,6.11 -14.68,9.17 -26.91,9.17 -12.23,0 -20.79,-3.06 -26.91,-9.17 -12.84,-12.85 -14.68,-36.09 -14.68,-68.51 0,-32.42 1.84,-55.66 14.68,-68.51 6.12,-6.11 14.68,-9.17 26.91,-9.17 12.23,0 20.8,3.06 26.91,9.17 12.85,12.85 14.68,36.09 14.68,68.51z"/>
  <path id="7" class="fil0" d="M4076.18 872.81l0 -84.41 -31.81 0c-13.46,0 -20.18,-7.34 -20.18,-20.18l0 -134.57 51.99 0 0 -77.07 -51.99 0 0 -94.2 -100.32 0 0 94.2 -29.97 0 0 77.07 29.97 0 0 141.91c0,45.27 29.36,97.26 102.15,97.26l50.16 0z"/>
  <path id="8" class="fil0" d="M4394.26 872.81l0 -213.47c0,-80.13 -50.77,-119.28 -144.97,-119.28 -55.66,0 -86.25,10.39 -119.89,44.04l62.39 62.39c15.9,-15.9 26.91,-22.02 52.61,-22.02 34.86,0 49.54,11.01 49.54,40.98l0 8.57 -66.67 0c-78.3,0 -111.94,45.88 -111.94,95.42 0,30.58 9.79,58.11 28.75,77.07 18.35,18.35 45.88,29.36 78.9,29.36 34.87,0 53.22,-9.78 73.4,-29.97l0 26.91 97.87 0zm-100.32 -123.56c0,15.9 -2.45,26.3 -9.79,33.03 -11.01,10.4 -20.18,12.23 -39.76,12.23 -22.02,0 -33.03,-12.85 -33.03,-27.53 0,-15.29 12.23,-26.3 31.81,-26.3l50.77 0 0 8.57z"/>
  <polygon class="fil1" points="4589.5,872.81 4589.5,762.71 4479.39,762.71 4479.39,872.81 "/>
  <path id="1" class="fil1" d="M4943.04 740.68l0 -44.65c0,-86.25 -52.6,-155.98 -148.03,-155.98 -86.24,0 -147.41,60.56 -147.41,168.21 0,141.91 83.8,168.21 156.59,168.21 61.17,0 94.2,-18.35 127.84,-51.99l-59.94 -59.94c-17.74,17.74 -33.03,27.53 -67.9,27.53 -37.31,0 -58.11,-24.47 -58.11,-51.38l196.96 0zm-99.09 -66.67l-97.87 0c0,-7.95 1.22,-17.13 5.51,-25.69 6.11,-14.07 19.57,-25.69 43.42,-25.69 23.86,0 37.32,11.62 43.43,25.69 4.29,8.57 5.51,17.74 5.51,25.69z"/>
  <path id="2" class="fil1" d="M5276.41 872.81l0 -434.9 -100.32 0 0 129.68c-18.35,-18.35 -40.98,-27.53 -73.4,-27.53 -31.81,0 -60.56,11.01 -79.52,29.97 -32.42,32.42 -30.58,89.92 -30.58,138.24 0,48.32 -1.83,105.82 30.58,138.24 18.96,18.97 48.32,29.97 80.13,29.97 34.25,0 55.66,-10.39 75.85,-30.58l0 26.91 97.26 0zm-100.32 -164.54c0,47.71 -4.28,77.68 -41.6,77.68 -37.31,0 -41.6,-29.97 -41.6,-77.68 0,-47.71 4.29,-77.68 41.6,-77.68 37.32,0 41.6,29.97 41.6,77.68z"/>
  <path id="3" class="fil1" d="M5630.57 872.81l0 -329.08 -100.32 0 0 196.96c0,37.93 -26.91,45.26 -40.37,45.26 -13.46,0 -40.37,-7.34 -40.37,-45.26l0 -196.96 -100.32 0 0 210.42c0,34.86 4.9,66.06 33.03,94.2 17.74,17.74 42.81,28.14 74.01,28.14 26.3,0 56.27,-10.39 76.46,-30.58l0 26.91 97.87 0z"/>
  <polygon id="4" class="fil1" points="5813.47,872.81 5813.47,762.71 5703.36,762.71 5703.36,872.81 "/>
  <path id="5" class="fil1" d="M6170.07 708.27c0,-48.32 1.83,-105.82 -30.58,-138.24 -18.97,-18.97 -48.33,-29.97 -80.13,-29.97 -34.25,0 -55.66,10.39 -75.85,30.58l0 -26.91 -97.25 0 0 435.51 100.31 0 0 -130.29c18.35,18.35 40.98,27.53 73.4,27.53 31.81,0 60.56,-11.01 79.52,-29.97 32.42,-32.42 30.58,-89.92 30.58,-138.24zm-100.32 0c0,47.71 -4.28,77.68 -41.6,77.68 -37.31,0 -41.6,-29.97 -41.6,-77.68 0,-47.71 4.29,-77.68 41.6,-77.68 37.32,0 41.6,29.97 41.6,77.68z"/>
  <path id="6" class="fil1" d="M6386.61 872.81l0 -84.41 -34.87 0c-13.45,0 -20.18,-7.23 -20.18,-20.08l0 -330.41 -100.32 0 0 337.75c0,45.17 29.36,97.16 102.15,97.16l53.22 0z"/>
  <g id="_2256971823600">
   <path class="fil2 str0" d="M1294.89 298.51c0,-71.71 -13.11,-129.96 -39.32,-175.1 -45.5,-78.63 -129.96,-117.95 -253.74,-117.95l-703.33 0c-124.14,0 -208.59,39.32 -253.73,117.95 -20.03,34.22 -32.04,76.08 -36.77,125.23 -1.82,15.65 -2.55,32.4 -2.55,49.87l0 703.33c0,17.47 0.73,34.22 2.55,50.24 0.73,7.64 1.82,14.93 2.91,22.57 14.93,97.2 61.89,162.36 141.25,195.12 40.41,16.75 89.19,25.12 146.35,25.12l703.32 0c169.28,0 265.39,-73.54 287.96,-220.25 3.28,-22.57 5.1,-46.96 5.1,-72.81l0 -703.33z"/>
   <path class="fil3" d="M1181.48 1085.52c6.34,-21.66 9.71,-46.67 9.71,-74.67l0 -721.35c0,-113.13 -53.39,-173.24 -160.18,-179.59 -6.35,-0.38 -13.07,-0.75 -20.16,-0.75l-721.35 0c-7.1,0 -13.82,0.37 -20.16,0.75 -106.79,6.35 -160.18,66.46 -160.18,179.59l0 721.35c0,28 3.36,53.01 10.08,74.67 21.28,70.57 78.03,105.67 170.26,105.67l721.35 0c92.21,0 148.97,-35.1 170.63,-105.67z"/>
  </g>
  <rect class="fil4" transform="matrix(1.19286 0.242241 -0 0.935421 281.626 262.036)" width="209.63" height="852.48"/>
  <polygon class="fil4" points="600.55,311.74 1014.71,183.22 1014.71,389.4 600.55,517.92 "/>
  <polygon class="fil4" points="600.55,906.28 1014.71,777.76 1014.71,983.94 600.55,1112.46 "/>
  <polygon class="fil4" points="600.55,609.01 1014.71,480.49 1014.71,686.67 600.55,815.19 "/>
 </g>
</svg>
