<?xml version="1.0" encoding="UTF-8"?>
<!DOCTYPE svg PUBLIC "-//W3C//DTD SVG 1.1//EN" "http://www.w3.org/Graphics/SVG/1.1/DTD/svg11.dtd">
<!-- Creator: CorelDRAW 2019 (64-Bit) -->
<svg xmlns="http://www.w3.org/2000/svg" xml:space="preserve" width="89.3325mm" height="36.1459mm" version="1.1" style="shape-rendering:geometricPrecision; text-rendering:geometricPrecision; image-rendering:optimizeQuality; fill-rule:evenodd; clip-rule:evenodd"
viewBox="0 0 3420.16 1383.87"
 xmlns:xlink="http://www.w3.org/1999/xlink"
 xmlns:xodm="http://www.corel.com/coreldraw/odm/2003">
 <defs>
  <style type="text/css">
   <![CDATA[
    .str0 {stroke:black;stroke-width:7.66;stroke-miterlimit:22.9256}
    .fil4 {fill:#FEFEFE}
    .fil1 {fill:black;fill-rule:nonzero}
    .fil2 {fill:white;fill-rule:nonzero}
    .fil3 {fill:url(#id0);fill-rule:nonzero}
    .fil0 {fill:url(#id1);fill-rule:nonzero}
   ]]>
  </style>
  <linearGradient id="id0" gradientUnits="userSpaceOnUse" x1="1779.25" y1="76.55" x2="1779.25" y2="835.36">
   <stop offset="0" style="stop-opacity:1; stop-color:#DA4A00"/>
   <stop offset="0.321569" style="stop-opacity:1; stop-color:#CA2500"/>
   <stop offset="1" style="stop-opacity:1; stop-color:#BA0000"/>
  </linearGradient>
  <linearGradient id="id1" gradientUnits="objectBoundingBox" xlink:href="#id0" x1="43.6344%" y1="25.8216%" x2="43.6344%" y2="95.07%">
  </linearGradient>
 </defs>
 <g id="Warstwa_x0020_1">
  <metadata id="CorelCorpID_0Corel-Layer"/>
  <polygon class="fil0" points="334.59,1078.46 260.38,1078.46 231.64,1198.13 191.74,1078.46 142.84,1078.46 102.95,1198.13 74.21,1078.46 -0,1078.46 69.49,1309.24 125.68,1309.24 167.29,1182.69 208.9,1309.24 265.09,1309.24 "/>
  <path id="1" class="fil0" d="M539.2 1233.74c0,-36.89 -21.02,-65.63 -69.49,-70.35l-35.6 -3.43c-15.87,-1.72 -15.02,-10.3 -15.02,-12.87 0,-5.15 5.58,-13.3 22.73,-13.3 18.02,0 37.32,2.14 48.9,13.73l43.32 -43.33c-22.73,-22.73 -53.19,-28.31 -90.94,-28.31 -45.9,0 -91.79,25.31 -91.79,76.35 0,45.04 27.02,63.06 66.92,66.92l35.6 3.43c13.73,1.29 16.73,8.15 16.73,14.58 0,12.01 -19.73,15.02 -30.03,15.02 -12.01,0 -36.89,0 -56.19,-19.3l-45.47 45.47c31.74,31.74 65.63,33.46 100.38,33.46 53.62,0 99.95,-23.59 99.95,-78.07z"/>
  <path id="2" class="fil0" d="M776.42 1193.85c0,-33.89 1.29,-74.21 -21.45,-96.94 -13.3,-13.3 -33.89,-21.02 -56.2,-21.02 -24.02,0 -39.04,7.29 -53.19,21.45l0 -18.87 -68.2 0 0 305.42 70.35 0 0 -91.37c12.87,12.87 28.74,19.3 51.48,19.3 22.31,0 42.47,-7.72 55.77,-21.02 22.73,-22.73 21.45,-63.06 21.45,-96.94zm-70.35 0c0,33.46 -3,54.48 -29.17,54.48 -26.16,0 -29.17,-21.02 -29.17,-54.48 0,-33.46 3.01,-54.48 29.17,-54.48 26.17,0 29.17,21.02 29.17,54.48z"/>
  <path id="3" class="fil0" d="M1012.34 1193.85c0,-45.04 -6.01,-67.34 -25.31,-88.36 -13.73,-14.59 -36.89,-29.6 -74.21,-29.6 -37.32,0 -60.48,15.01 -74.21,29.6 -19.3,21.02 -25.31,43.32 -25.31,88.36 0,45.47 6,67.34 25.31,88.36 13.73,14.59 36.89,29.6 74.21,29.6 37.32,0 60.48,-15.01 74.21,-29.6 19.3,-21.02 25.31,-42.9 25.31,-88.36zm-70.35 0c0,22.73 -1.29,39.04 -10.3,48.04 -4.29,4.29 -10.3,6.43 -18.87,6.43 -8.58,0 -14.58,-2.14 -18.87,-6.43 -9,-9.01 -10.3,-25.31 -10.3,-48.04 0,-22.73 1.29,-39.04 10.3,-48.04 4.29,-4.29 10.3,-6.43 18.87,-6.43 8.58,0 14.59,2.14 18.87,6.43 9.01,9.01 10.3,25.31 10.3,48.04z"/>
  <path id="4" class="fil0" d="M1164.19 1309.24l0 -59.2 -24.45 0c-9.43,0 -14.15,-5.07 -14.15,-14.08l0 -231.71 -70.35 0 0 236.85c0,31.67 20.59,68.13 71.64,68.13l37.32 0z"/>
  <path id="5" class="fil0" d="M1400.98 1309.24l0 -147.56c0,-24.45 -3.43,-46.33 -23.16,-66.06 -12.44,-12.44 -30.03,-19.73 -51.9,-19.73 -18.45,0 -39.46,7.29 -53.62,21.45l0 -18.87 -68.63 0 0 230.78 70.35 0 0 -138.12c0,-26.6 18.87,-31.74 28.31,-31.74 9.44,0 28.31,5.15 28.31,31.74l0 138.12 70.35 0z"/>
  <path id="6" class="fil0" d="M1642.91 1193.85c0,-45.04 -6.01,-67.34 -25.31,-88.36 -13.73,-14.59 -36.89,-29.6 -74.21,-29.6 -37.32,0 -60.48,15.01 -74.21,29.6 -19.3,21.02 -25.31,43.32 -25.31,88.36 0,45.47 6,67.34 25.31,88.36 13.73,14.59 36.89,29.6 74.21,29.6 37.32,0 60.48,-15.01 74.21,-29.6 19.3,-21.02 25.31,-42.9 25.31,-88.36zm-70.35 0c0,22.73 -1.29,39.04 -10.3,48.04 -4.29,4.29 -10.3,6.43 -18.87,6.43 -8.58,0 -14.58,-2.14 -18.87,-6.43 -9,-9.01 -10.3,-25.31 -10.3,-48.04 0,-22.73 1.29,-39.04 10.3,-48.04 4.29,-4.29 10.3,-6.43 18.87,-6.43 8.58,0 14.59,2.14 18.87,6.43 9.01,9.01 10.3,25.31 10.3,48.04z"/>
  <path id="7" class="fil0" d="M1799.91 1309.24l0 -59.2 -22.31 0c-9.44,0 -14.15,-5.15 -14.15,-14.15l0 -94.37 36.46 0 0 -54.05 -36.46 0 0 -66.06 -70.35 0 0 66.06 -21.02 0 0 54.05 21.02 0 0 99.52c0,31.75 20.59,68.21 71.64,68.21l35.17 0z"/>
  <path id="8" class="fil0" d="M2022.97 1309.24l0 -149.71c0,-56.2 -35.61,-83.65 -101.66,-83.65 -39.04,0 -60.48,7.29 -84.08,30.89l43.75 43.75c11.15,-11.15 18.87,-15.44 36.89,-15.44 24.45,0 34.74,7.72 34.74,28.74l0 6.01 -46.75 0c-54.91,0 -78.5,32.17 -78.5,66.92 0,21.45 6.86,40.75 20.16,54.05 12.87,12.87 32.17,20.59 55.33,20.59 24.45,0 37.32,-6.86 51.48,-21.02l0 18.87 68.63 0zm-70.35 -86.65c0,11.15 -1.72,18.44 -6.86,23.16 -7.72,7.29 -14.15,8.58 -27.88,8.58 -15.44,0 -23.16,-9.01 -23.16,-19.3 0,-10.72 8.58,-18.45 22.31,-18.45l35.6 0 0 6.01z"/>
  <polygon class="fil1" points="2159.89,1309.24 2159.89,1232.02 2082.67,1232.02 2082.67,1309.24 "/>
  <path id="1" class="fil1" d="M2407.82 1216.58l0 -31.31c0,-60.48 -36.89,-109.38 -103.81,-109.38 -60.48,0 -103.38,42.47 -103.38,117.96 0,99.52 58.76,117.96 109.81,117.96 42.9,0 66.06,-12.87 89.65,-36.46l-42.04 -42.04c-12.44,12.44 -23.17,19.3 -47.62,19.3 -26.16,0 -40.75,-17.16 -40.75,-36.03l138.12 0zm-69.49 -46.75l-68.63 0c0,-5.58 0.86,-12.01 3.86,-18.02 4.29,-9.87 13.73,-18.02 30.45,-18.02 16.73,0 26.17,8.15 30.46,18.02 3.01,6.01 3.86,12.44 3.86,18.02z"/>
  <path id="2" class="fil1" d="M2641.61 1309.24l0 -304.99 -70.35 0 0 90.94c-12.87,-12.87 -28.74,-19.3 -51.48,-19.3 -22.31,0 -42.47,7.72 -55.76,21.02 -22.73,22.73 -21.45,63.06 -21.45,96.94 0,33.89 -1.29,74.21 21.45,96.94 13.3,13.3 33.89,21.02 56.19,21.02 24.02,0 39.04,-7.29 53.19,-21.45l0 18.87 68.21 0zm-70.35 -115.39c0,33.46 -3,54.48 -29.17,54.48 -26.16,0 -29.17,-21.02 -29.17,-54.48 0,-33.46 3.01,-54.48 29.17,-54.48 26.17,0 29.17,21.02 29.17,54.48z"/>
  <path id="3" class="fil1" d="M2889.97 1309.24l0 -230.78 -70.35 0 0 138.12c0,26.6 -18.87,31.74 -28.31,31.74 -9.44,0 -28.31,-5.15 -28.31,-31.74l0 -138.12 -70.35 0 0 147.56c0,24.45 3.43,46.33 23.17,66.06 12.44,12.44 30.02,19.73 51.9,19.73 18.44,0 39.46,-7.29 53.62,-21.45l0 18.87 68.63 0z"/>
  <polygon id="4" class="fil1" points="3018.23,1309.24 3018.23,1232.02 2941.02,1232.02 2941.02,1309.24 "/>
  <path id="5" class="fil1" d="M3268.31 1193.85c0,-33.89 1.29,-74.21 -21.45,-96.94 -13.3,-13.3 -33.89,-21.02 -56.2,-21.02 -24.02,0 -39.04,7.29 -53.19,21.45l0 -18.87 -68.2 0 0 305.42 70.35 0 0 -91.37c12.87,12.87 28.74,19.3 51.48,19.3 22.31,0 42.47,-7.72 55.77,-21.02 22.73,-22.73 21.45,-63.06 21.45,-96.94zm-70.35 0c0,33.46 -3,54.48 -29.17,54.48 -26.16,0 -29.17,-21.02 -29.17,-54.48 0,-33.46 3.01,-54.48 29.17,-54.48 26.17,0 29.17,21.02 29.17,54.48z"/>
  <path id="6" class="fil1" d="M3420.16 1309.24l0 -59.2 -24.45 0c-9.43,0 -14.15,-5.07 -14.15,-14.08l0 -231.71 -70.35 0 0 236.85c0,31.67 20.59,68.13 71.64,68.13l37.32 0z"/>
  <g id="_2255024229056">
   <path class="fil2 str0" d="M2231.38 209.34c0,-50.29 -9.19,-91.14 -27.57,-122.79 -31.91,-55.14 -91.14,-82.72 -177.94,-82.72l-493.23 0c-87.05,0 -146.28,27.57 -177.94,82.72 -14.04,24 -22.47,53.36 -25.79,87.82 -1.28,10.98 -1.79,22.72 -1.79,34.97l0 493.23c0,12.25 0.51,24 1.79,35.23 0.51,5.36 1.27,10.47 2.04,15.83 10.47,68.16 43.4,113.86 99.05,136.84 28.34,11.75 62.55,17.62 102.63,17.62l493.22 0c118.71,0 186.11,-51.57 201.94,-154.46 2.3,-15.83 3.58,-32.93 3.58,-51.06l0 -493.23z"/>
   <path class="fil3" d="M2151.85 761.26c4.45,-15.19 6.81,-32.73 6.81,-52.36l0 -505.87c0,-79.34 -37.44,-121.49 -112.33,-125.94 -4.45,-0.26 -9.17,-0.52 -14.14,-0.52l-505.87 0c-4.98,0 -9.69,0.26 -14.14,0.52 -74.89,4.45 -112.33,46.61 -112.33,125.94l0 505.87c0,19.64 2.35,37.18 7.07,52.36 14.92,49.49 54.72,74.1 119.4,74.1l505.87 0c64.67,0 104.47,-24.61 119.66,-74.1z"/>
  </g>
  <rect class="fil4" transform="matrix(1.19286 0.242241 -0 0.935421 1520.8 183.761)" width="147.01" height="597.83"/>
  <polygon class="fil4" points="1744.45,218.62 2034.89,128.49 2034.89,273.08 1744.45,363.21 "/>
  <polygon class="fil4" points="1744.45,635.56 2034.89,545.43 2034.89,690.02 1744.45,780.15 "/>
  <polygon class="fil4" points="1744.45,427.09 2034.89,336.96 2034.89,481.55 1744.45,571.68 "/>
 </g>
</svg>
