<?xml version="1.0" encoding="UTF-8"?>
<!DOCTYPE svg PUBLIC "-//W3C//DTD SVG 1.1//EN" "http://www.w3.org/Graphics/SVG/1.1/DTD/svg11.dtd">
<!-- Creator: CorelDRAW 2019 (64-Bit) -->
<svg xmlns="http://www.w3.org/2000/svg" xml:space="preserve" width="151.257mm" height="23.8186mm" version="1.1" style="shape-rendering:geometricPrecision; text-rendering:geometricPrecision; image-rendering:optimizeQuality; fill-rule:evenodd; clip-rule:evenodd"
viewBox="0 0 9161.59 1442.68"
 xmlns:xlink="http://www.w3.org/1999/xlink"
 xmlns:xodm="http://www.corel.com/coreldraw/odm/2003">
 <defs>
  <style type="text/css">
   <![CDATA[
    .str0 {stroke:black;stroke-width:12.11;stroke-miterlimit:22.9256}
    .fil4 {fill:#FEFEFE}
    .fil2 {fill:black;fill-rule:nonzero}
    .fil0 {fill:white;fill-rule:nonzero}
    .fil1 {fill:url(#id0);fill-rule:nonzero}
    .fil3 {fill:url(#id1);fill-rule:nonzero}
   ]]>
  </style>
  <linearGradient id="id0" gradientUnits="userSpaceOnUse" x1="721.34" y1="121.11" x2="721.34" y2="1321.57">
   <stop offset="0" style="stop-opacity:1; stop-color:#DA4A00"/>
   <stop offset="0.321569" style="stop-opacity:1; stop-color:#CA2500"/>
   <stop offset="1" style="stop-opacity:1; stop-color:#BA0000"/>
  </linearGradient>
  <linearGradient id="id1" gradientUnits="objectBoundingBox" xlink:href="#id0" x1="42.7731%" y1="25.8216%" x2="42.7731%" y2="81.9244%">
  </linearGradient>
 </defs>
 <g id="Warstwa_x0020_1">
  <metadata id="CorelCorpID_0Corel-Layer"/>
  <g id="_2420404908320">
   <path class="fil0 str0" d="M1436.62 331.18c0,-79.56 -14.54,-144.19 -43.62,-194.26 -50.48,-87.24 -144.19,-130.86 -281.51,-130.86l-780.31 0c-137.72,0 -231.42,43.62 -281.5,130.86 -22.22,37.96 -35.55,84.41 -40.79,138.93 -2.02,17.37 -2.83,35.95 -2.83,55.33l0 780.31c0,19.38 0.81,37.96 2.83,55.74 0.81,8.48 2.02,16.56 3.23,25.04 16.56,107.84 68.66,180.13 156.71,216.48 44.83,18.58 98.95,27.87 162.37,27.87l780.3 0c187.81,0 294.43,-81.59 319.47,-244.36 3.64,-25.04 5.66,-52.1 5.66,-80.78l0 -780.31z"/>
   <path class="fil1" d="M1310.8 1204.33c7.04,-24.03 10.77,-51.77 10.77,-82.84l0 -800.31c0,-125.51 -59.24,-192.21 -177.71,-199.25 -7.04,-0.42 -14.5,-0.83 -22.36,-0.83l-800.31 0c-7.87,0 -15.33,0.41 -22.37,0.83 -118.47,7.04 -177.71,73.74 -177.71,199.25l0 800.31c0,31.07 3.73,58.81 11.19,82.84 23.61,78.29 86.57,117.23 188.89,117.23l800.31 0c102.31,0 165.28,-38.94 189.3,-117.23z"/>
  </g>
  <polygon class="fil2" points="2050.02,1004.94 2050.02,522.44 1931.27,522.44 1931.27,765.05 1776.53,522.44 1672.71,522.44 1672.71,1004.94 1791.47,1004.94 1791.47,762.33 1946.19,1004.94 "/>
  <path id="1" class="fil2" d="M2442.95 822.39c0,-71.25 -9.5,-106.54 -40.04,-139.79 -21.71,-23.08 -58.36,-46.83 -117.4,-46.83 -59.04,0 -95.69,23.75 -117.4,46.83 -30.54,33.25 -40.04,68.54 -40.04,139.79 0,71.93 9.5,106.54 40.04,139.79 21.71,23.08 58.36,46.83 117.4,46.83 59.04,0 95.69,-23.75 117.4,-46.83 30.54,-33.25 40.04,-67.86 40.04,-139.79zm-111.3 0c0,35.97 -2.04,61.76 -16.29,76.01 -6.78,6.78 -16.29,10.18 -29.86,10.18 -13.57,0 -23.07,-3.39 -29.86,-10.18 -14.25,-14.25 -16.29,-40.04 -16.29,-76.01 0,-35.97 2.04,-61.76 16.29,-76.01 6.79,-6.78 16.29,-10.18 29.86,-10.18 13.57,0 23.08,3.39 29.86,10.18 14.25,14.25 16.29,40.04 16.29,76.01z"/>
  <polygon id="2" class="fil2" points="2996.03,639.84 2878.63,639.84 2833.16,829.17 2770.04,639.84 2692.69,639.84 2629.57,829.17 2584.1,639.84 2466.7,639.84 2576.64,1004.94 2665.54,1004.94 2731.37,804.75 2797.19,1004.94 2886.09,1004.94 "/>
  <path id="3" class="fil2" d="M3334.67 822.39c0,-71.25 -9.5,-106.54 -40.04,-139.79 -21.71,-23.08 -58.36,-46.83 -117.4,-46.83 -59.04,0 -95.69,23.75 -117.4,46.83 -30.54,33.25 -40.04,68.54 -40.04,139.79 0,71.93 9.5,106.54 40.04,139.79 21.71,23.08 58.36,46.83 117.4,46.83 59.04,0 95.69,-23.75 117.4,-46.83 30.54,-33.25 40.04,-67.86 40.04,-139.79zm-111.3 0c0,35.97 -2.04,61.76 -16.29,76.01 -6.78,6.78 -16.29,10.18 -29.86,10.18 -13.57,0 -23.07,-3.39 -29.86,-10.18 -14.25,-14.25 -16.29,-40.04 -16.29,-76.01 0,-35.97 2.04,-61.76 16.29,-76.01 6.79,-6.78 16.29,-10.18 29.86,-10.18 13.57,0 23.08,3.39 29.86,10.18 14.25,14.25 16.29,40.04 16.29,76.01z"/>
  <path id="4" class="fil2" d="M3673.98 962.18l-75.33 -75.32c-14.25,14.25 -26.46,21.71 -44.79,21.71 -14.92,0 -25.11,-4.75 -34.61,-14.25 -12.89,-13.57 -18.32,-37.32 -18.32,-71.93 0,-34.61 5.43,-58.36 18.32,-71.93 9.5,-9.5 19.69,-14.25 34.61,-14.25 18.33,0 30.54,7.46 44.79,21.71l75.33 -75.32c-29.86,-29.86 -69.22,-46.83 -120.12,-46.83 -63.11,0 -164.22,27.14 -164.22,186.62 0,159.48 101.11,186.62 164.22,186.62 50.9,0 90.26,-16.97 120.12,-46.83z"/>
  <polygon id="5" class="fil2" points="3990.9,1004.94 3990.9,904.5 3849.07,904.5 3990.9,721.95 3990.9,639.84 3714.7,639.84 3714.7,740.27 3845.68,740.27 3706.55,922.83 3706.55,1004.94 "/>
  <path id="6" class="fil2" d="M4371.61 858.36l0 -49.54c0,-95.69 -58.36,-173.05 -164.23,-173.05 -95.68,0 -163.54,67.18 -163.54,186.62 0,157.44 92.97,186.62 173.73,186.62 67.86,0 104.51,-20.36 141.84,-57.68l-66.51 -66.51c-19.69,19.68 -36.65,30.54 -75.33,30.54 -41.39,0 -64.47,-27.15 -64.47,-57.01l218.52 0zm-109.93 -73.97l-108.58 0c0,-8.82 1.36,-19 6.11,-28.5 6.78,-15.61 21.71,-28.5 48.18,-28.5 26.47,0 41.4,12.9 48.18,28.5 4.75,9.5 6.11,19.68 6.11,28.5z"/>
  <path id="7" class="fil2" d="M4721.1 885.5c0,-58.36 -33.25,-103.83 -109.94,-111.3l-56.32 -5.43c-25.11,-2.71 -23.76,-16.29 -23.76,-20.36 0,-8.15 8.82,-21.04 35.97,-21.04 28.5,0 59.04,3.39 77.37,21.72l68.54 -68.55c-35.97,-35.97 -84.15,-44.79 -143.87,-44.79 -72.61,0 -145.22,40.04 -145.22,120.79 0,71.25 42.75,99.76 105.86,105.86l56.32 5.43c21.72,2.04 26.47,12.89 26.47,23.07 0,19 -31.22,23.76 -47.5,23.76 -19,0 -58.36,0 -88.9,-30.54l-71.94 71.93c50.22,50.22 103.83,52.93 158.8,52.93 84.83,0 158.12,-37.32 158.12,-123.51z"/>
  <path id="8" class="fil2" d="M5093.67 1004.94l0 -233.45c0,-38.68 -5.43,-73.3 -36.64,-104.51 -19.68,-19.69 -47.5,-31.22 -82.11,-31.22 -29.18,0 -62.44,11.53 -84.83,33.93l0 -29.86 -108.58 0 0 365.1 111.29 0 0 -218.52c0,-42.08 29.86,-50.22 44.79,-50.22 14.93,0 44.79,8.14 44.79,50.22l0 218.52 111.29 0z"/>
  <path id="9" class="fil2" d="M5486.59 639.84l-116.72 0 -59.04 189.33 -61.76 -189.33 -116.72 0 121.47 329.13 -10.18 30.54c-7.47,22.39 -17.64,27.14 -37.33,27.14l-23.75 0 0 100.44 42.08 0c32.57,0 60.39,-7.46 82.11,-30.53 11.53,-11.54 21.04,-27.15 28.5,-48.18l151.33 -408.54z"/>
  <polygon class="fil3" points="5877.09,1004.94 5877.09,899.08 5691.14,899.08 5877.09,614.73 5877.09,522.44 5557.45,522.44 5557.45,628.3 5734.57,628.3 5549.31,912.64 5549.31,1004.94 "/>
  <path id="1" class="fil3" d="M6225.22 1004.94l0 -236.84c0,-88.9 -56.33,-132.33 -160.84,-132.33 -61.76,0 -95.69,11.53 -133.01,48.86l69.22 69.22c17.64,-17.64 29.86,-24.43 58.36,-24.43 38.68,0 54.97,12.22 54.97,45.47l0 9.5 -73.97 0c-86.87,0 -124.19,50.9 -124.19,105.86 0,33.93 10.86,64.47 31.9,85.51 20.36,20.36 50.9,32.57 87.54,32.57 38.69,0 59.04,-10.85 81.44,-33.25l0 29.86 108.58 0zm-111.3 -137.08c0,17.64 -2.71,29.18 -10.86,36.64 -12.21,11.54 -22.39,13.57 -44.11,13.57 -24.43,0 -36.64,-14.25 -36.64,-30.54 0,-16.97 13.57,-29.18 35.29,-29.18l56.32 0 0 9.5z"/>
  <path id="2" class="fil3" d="M6583.53 669.7c-25.11,-25.11 -49.54,-33.93 -85.51,-33.93 -38,0 -69.9,17.64 -86.18,33.93l0 -29.86 -108.58 0 0 365.1 111.29 0 0 -218.52c0,-41.4 29.86,-50.22 44.79,-50.22 19,0 29.18,8.14 40.04,19l84.15 -85.51z"/>
  <polygon id="3" class="fil3" points="6888.23,1004.94 6888.23,904.5 6746.4,904.5 6888.23,721.95 6888.23,639.84 6612.04,639.84 6612.04,740.27 6743.01,740.27 6603.89,922.83 6603.89,1004.94 "/>
  <path id="4" class="fil3" d="M7243.16 1004.94l0 -236.84c0,-88.9 -56.33,-132.33 -160.84,-132.33 -61.76,0 -95.69,11.53 -133.01,48.86l69.22 69.22c17.64,-17.64 29.86,-24.43 58.36,-24.43 38.68,0 54.97,12.22 54.97,45.47l0 9.5 -73.97 0c-86.87,0 -124.19,50.9 -124.19,105.86 0,33.93 10.86,64.47 31.9,85.51 20.36,20.36 50.9,32.57 87.54,32.57 38.69,0 59.04,-10.85 81.44,-33.25l0 29.86 108.58 0zm-111.3 -137.08c0,17.64 -2.71,29.18 -10.86,36.64 -12.21,11.54 -22.39,13.57 -44.11,13.57 -24.43,0 -36.64,-14.25 -36.64,-30.54 0,-16.97 13.57,-29.18 35.29,-29.18l56.32 0 0 9.5z"/>
  <path id="5" class="fil3" d="M7623.19 1004.94l0 -482.5 -111.3 0 0 143.87c-20.36,-20.36 -45.47,-30.54 -81.44,-30.54 -35.29,0 -67.18,12.21 -88.22,33.25 -35.97,35.97 -33.93,99.76 -33.93,153.37 0,53.61 -2.04,117.4 33.93,153.37 21.04,21.04 53.61,33.25 88.9,33.25 38,0 61.76,-11.53 84.15,-33.93l0 29.86 107.9 0zm-111.3 -182.55c0,52.93 -4.75,86.18 -46.15,86.18 -41.39,0 -46.15,-33.25 -46.15,-86.18 0,-52.93 4.75,-86.18 46.15,-86.18 41.4,0 46.15,33.25 46.15,86.18z"/>
  <path id="6" class="fil3" d="M7975.4 962.18l-75.33 -75.32c-14.25,14.25 -26.46,21.71 -44.79,21.71 -14.92,0 -25.11,-4.75 -34.61,-14.25 -12.89,-13.57 -18.32,-37.32 -18.32,-71.93 0,-34.61 5.43,-58.36 18.32,-71.93 9.5,-9.5 19.69,-14.25 34.61,-14.25 18.33,0 30.54,7.46 44.79,21.71l75.33 -75.32c-29.86,-29.86 -69.22,-46.83 -120.12,-46.83 -63.11,0 -164.22,27.14 -164.22,186.62 0,159.48 101.11,186.62 164.22,186.62 50.9,0 90.26,-16.97 120.12,-46.83z"/>
  <path id="7" class="fil3" d="M8312.67 1004.94l0 -236.84c0,-88.9 -56.33,-132.33 -160.84,-132.33 -61.76,0 -95.69,11.53 -133.01,48.86l69.22 69.22c17.64,-17.64 29.86,-24.43 58.36,-24.43 38.68,0 54.97,12.22 54.97,45.47l0 9.5 -73.97 0c-86.87,0 -124.19,50.9 -124.19,105.86 0,33.93 10.86,64.47 31.9,85.51 20.36,20.36 50.9,32.57 87.54,32.57 38.69,0 59.04,-10.85 81.44,-33.25l0 29.86 108.58 0zm-111.3 -137.08c0,17.64 -2.71,29.18 -10.86,36.64 -12.21,11.54 -22.39,13.57 -44.11,13.57 -24.43,0 -36.64,-14.25 -36.64,-30.54 0,-16.97 13.57,-29.18 35.29,-29.18l56.32 0 0 9.5z"/>
  <g id="_2420404908992">
   <polygon class="fil2" points="8525.72,1004.94 8525.72,882.79 8403.56,882.79 8403.56,1004.94 "/>
   <path class="fil2" d="M8921.36 822.39c0,-53.61 2.04,-117.4 -33.93,-153.37 -21.04,-21.04 -53.62,-33.25 -88.9,-33.25 -38,0 -61.76,11.53 -84.15,33.93l0 -29.86 -107.9 0 0 483.18 111.29 0 0 -144.55c20.36,20.36 45.47,30.54 81.44,30.54 35.29,0 67.18,-12.21 88.23,-33.25 35.97,-35.97 33.93,-99.76 33.93,-153.37zm-111.3 0c0,52.93 -4.75,86.18 -46.15,86.18 -41.39,0 -46.15,-33.25 -46.15,-86.18 0,-52.93 4.75,-86.18 46.15,-86.18 41.4,0 46.15,33.25 46.15,86.18z"/>
   <path class="fil2" d="M9161.59 1004.94l0 -93.65 -38.69 0c-14.92,0 -22.39,-8.03 -22.39,-22.28l0 -366.57 -111.3 0 0 374.71c0,50.11 32.57,107.79 113.33,107.79l59.04 0z"/>
  </g>
  <g id="_2420404912448">
   <polygon class="fil4" points="1100.31,342.37 1100.31,342.37 1100.31,342.36 666.95,195.69 480.61,382.04 913.96,528.72 1060.64,962.07 1246.98,775.73 "/>
   <polygon class="fil4" points="815.39,627.29 815.39,627.29 815.39,627.28 382.03,480.61 195.69,666.95 629.04,813.63 775.73,1246.98 962.06,1060.65 "/>
  </g>
 </g>
</svg>
