<?xml version="1.0" encoding="UTF-8"?>
<!DOCTYPE svg PUBLIC "-//W3C//DTD SVG 1.1//EN" "http://www.w3.org/Graphics/SVG/1.1/DTD/svg11.dtd">
<!-- Creator: CorelDRAW 2019 (64-Bit) -->
<svg xmlns="http://www.w3.org/2000/svg" xml:space="preserve" width="123.641mm" height="35.6044mm" version="1.1" style="shape-rendering:geometricPrecision; text-rendering:geometricPrecision; image-rendering:optimizeQuality; fill-rule:evenodd; clip-rule:evenodd"
viewBox="0 0 6955.36 2002.91"
 xmlns:xlink="http://www.w3.org/1999/xlink"
 xmlns:xodm="http://www.corel.com/coreldraw/odm/2003">
 <defs>
  <style type="text/css">
   <![CDATA[
    .str0 {stroke:black;stroke-width:11.25;stroke-miterlimit:22.9256}
    .fil4 {fill:#FEFEFE}
    .fil0 {fill:black;fill-rule:nonzero}
    .fil2 {fill:white;fill-rule:nonzero}
    .fil3 {fill:url(#id0);fill-rule:nonzero}
    .fil1 {fill:url(#id1);fill-rule:nonzero}
   ]]>
  </style>
  <linearGradient id="id0" gradientUnits="userSpaceOnUse" x1="3286.9" y1="112.48" x2="3286.9" y2="1227.42">
   <stop offset="0" style="stop-opacity:1; stop-color:#DA4A00"/>
   <stop offset="0.321569" style="stop-opacity:1; stop-color:#CA2500"/>
   <stop offset="1" style="stop-opacity:1; stop-color:#BA0000"/>
  </linearGradient>
  <linearGradient id="id1" gradientUnits="objectBoundingBox" xlink:href="#id0" x1="42.7731%" y1="25.8216%" x2="42.7731%" y2="81.9244%">
  </linearGradient>
 </defs>
 <g id="Warstwa_x0020_1">
  <metadata id="CorelCorpID_0Corel-Layer"/>
  <polygon class="fil0" points="350.44,1889.46 350.44,1441.33 240.14,1441.33 240.14,1666.66 96.43,1441.33 -0,1441.33 -0,1889.46 110.3,1889.46 110.3,1664.13 254,1889.46 "/>
  <path id="1" class="fil0" d="M715.37 1719.91c0,-66.18 -8.83,-98.95 -37.19,-129.84 -20.17,-21.43 -54.2,-43.49 -109.04,-43.49 -54.83,0 -88.87,22.06 -109.04,43.49 -28.36,30.88 -37.18,63.66 -37.18,129.84 0,66.81 8.82,98.95 37.18,129.84 20.17,21.43 54.21,43.49 109.04,43.49 54.84,0 88.87,-22.06 109.04,-43.49 28.36,-30.88 37.19,-63.03 37.19,-129.84zm-103.37 0c0,33.4 -1.89,57.36 -15.13,70.59 -6.3,6.3 -15.13,9.45 -27.73,9.45 -12.61,0 -21.43,-3.15 -27.73,-9.45 -13.23,-13.24 -15.13,-37.19 -15.13,-70.59 0,-33.4 1.9,-57.36 15.13,-70.59 6.31,-6.3 15.13,-9.45 27.73,-9.45 12.61,0 21.43,3.15 27.73,9.45 13.24,13.24 15.13,37.19 15.13,70.59z"/>
  <polygon id="2" class="fil0" points="1229.05,1550.37 1120.01,1550.37 1077.78,1726.21 1019.16,1550.37 947.31,1550.37 888.7,1726.21 846.47,1550.37 737.43,1550.37 839.54,1889.46 922.1,1889.46 983.24,1703.53 1044.38,1889.46 1126.94,1889.46 "/>
  <path id="3" class="fil0" d="M1543.56 1719.91c0,-66.18 -8.83,-98.95 -37.19,-129.84 -20.17,-21.43 -54.2,-43.49 -109.04,-43.49 -54.83,0 -88.87,22.06 -109.04,43.49 -28.36,30.88 -37.18,63.66 -37.18,129.84 0,66.81 8.82,98.95 37.18,129.84 20.17,21.43 54.21,43.49 109.04,43.49 54.84,0 88.87,-22.06 109.04,-43.49 28.36,-30.88 37.19,-63.03 37.19,-129.84zm-103.37 0c0,33.4 -1.89,57.36 -15.13,70.59 -6.3,6.3 -15.13,9.45 -27.73,9.45 -12.61,0 -21.43,-3.15 -27.73,-9.45 -13.23,-13.24 -15.13,-37.19 -15.13,-70.59 0,-33.4 1.9,-57.36 15.13,-70.59 6.31,-6.3 15.13,-9.45 27.73,-9.45 12.61,0 21.43,3.15 27.73,9.45 13.24,13.24 15.13,37.19 15.13,70.59z"/>
  <path id="4" class="fil0" d="M1858.7 1849.75l-69.96 -69.96c-13.24,13.24 -24.58,20.17 -41.6,20.17 -13.86,0 -23.32,-4.41 -32.14,-13.24 -11.97,-12.61 -17.02,-34.66 -17.02,-66.81 0,-32.14 5.05,-54.21 17.02,-66.81 8.83,-8.83 18.28,-13.24 32.14,-13.24 17.02,0 28.36,6.93 41.6,20.17l69.96 -69.96c-27.73,-27.73 -64.29,-43.49 -111.56,-43.49 -58.61,0 -152.52,25.21 -152.52,173.33 0,148.12 93.91,173.33 152.52,173.33 47.28,0 83.83,-15.76 111.56,-43.49z"/>
  <polygon id="5" class="fil0" points="2153.04,1889.46 2153.04,1796.18 2021.31,1796.18 2153.04,1626.63 2153.04,1550.37 1896.52,1550.37 1896.52,1643.65 2018.16,1643.65 1888.95,1813.19 1888.95,1889.46 "/>
  <path id="6" class="fil0" d="M2506.63 1753.32l0 -46.01c0,-88.87 -54.2,-160.72 -152.53,-160.72 -88.87,0 -151.89,62.4 -151.89,173.33 0,146.22 86.34,173.33 161.35,173.33 63.03,0 97.06,-18.91 131.73,-53.57l-61.77 -61.77c-18.28,18.28 -34.04,28.36 -69.96,28.36 -38.44,0 -59.88,-25.21 -59.88,-52.95l202.95 0zm-102.1 -68.7l-100.85 0c0,-8.2 1.26,-17.65 5.68,-26.47 6.3,-14.5 20.17,-26.47 44.74,-26.47 24.58,0 38.45,11.98 44.75,26.47 4.42,8.83 5.68,18.28 5.68,26.47z"/>
  <path id="7" class="fil0" d="M2831.22 1778.53c0,-54.21 -30.88,-96.43 -102.11,-103.37l-52.31 -5.04c-23.32,-2.52 -22.06,-15.13 -22.06,-18.91 0,-7.57 8.2,-19.54 33.4,-19.54 26.47,0 54.84,3.15 71.85,20.17l63.66 -63.66c-33.4,-33.4 -78.15,-41.59 -133.62,-41.59 -67.44,0 -134.88,37.18 -134.88,112.19 0,66.18 39.7,92.65 98.32,98.32l52.31 5.05c20.17,1.89 24.58,11.97 24.58,21.43 0,17.65 -28.99,22.06 -44.12,22.06 -17.65,0 -54.2,0 -82.56,-28.36l-66.81 66.81c46.64,46.64 96.44,49.16 147.49,49.16 78.78,0 146.86,-34.66 146.86,-114.71z"/>
  <path id="8" class="fil0" d="M3177.25 1889.46l0 -216.82c0,-35.92 -5.04,-68.07 -34.03,-97.06 -18.28,-18.28 -44.12,-28.99 -76.26,-28.99 -27.1,0 -57.99,10.71 -78.78,31.51l0 -27.73 -100.84 0 0 339.09 103.36 0 0 -202.95c0,-39.08 27.73,-46.64 41.6,-46.64 13.87,0 41.6,7.56 41.6,46.64l0 202.95 103.36 0z"/>
  <path id="9" class="fil0" d="M3542.18 1550.37l-108.41 0 -54.83 175.85 -57.36 -175.85 -108.41 0 112.82 305.69 -9.45 28.36c-6.94,20.8 -16.39,25.21 -34.67,25.21l-22.06 0 0 93.28 39.08 0c30.25,0 56.09,-6.93 76.26,-28.36 10.71,-10.72 19.54,-25.21 26.47,-44.75l140.55 -379.43z"/>
  <polygon class="fil1" points="3904.85,1889.46 3904.85,1791.14 3732.16,1791.14 3904.85,1527.04 3904.85,1441.33 3607.99,1441.33 3607.99,1539.65 3772.49,1539.65 3600.43,1803.74 3600.43,1889.46 "/>
  <path id="1" class="fil1" d="M4228.19 1889.46l0 -219.97c0,-82.57 -52.32,-122.9 -149.38,-122.9 -57.36,0 -88.87,10.71 -123.53,45.38l64.29 64.29c16.39,-16.39 27.73,-22.69 54.21,-22.69 35.92,0 51.05,11.35 51.05,42.23l0 8.83 -68.7 0c-80.68,0 -115.34,47.27 -115.34,98.32 0,31.51 10.09,59.88 29.62,79.41 18.91,18.91 47.27,30.25 81.3,30.25 35.93,0 54.84,-10.08 75.63,-30.88l0 27.73 100.85 0zm-103.37 -127.32c0,16.39 -2.52,27.1 -10.09,34.03 -11.34,10.72 -20.8,12.61 -40.96,12.61 -22.69,0 -34.03,-13.24 -34.03,-28.36 0,-15.76 12.6,-27.1 32.77,-27.1l52.31 0 0 8.83z"/>
  <path id="2" class="fil1" d="M4560.97 1578.1c-23.32,-23.32 -46.01,-31.51 -79.41,-31.51 -35.29,0 -64.92,16.39 -80.04,31.51l0 -27.73 -100.84 0 0 339.09 103.36 0 0 -202.95c0,-38.45 27.73,-46.64 41.6,-46.64 17.65,0 27.1,7.56 37.18,17.65l78.15 -79.41z"/>
  <polygon id="3" class="fil1" points="4843.96,1889.46 4843.96,1796.18 4712.24,1796.18 4843.96,1626.63 4843.96,1550.37 4587.44,1550.37 4587.44,1643.65 4709.09,1643.65 4579.88,1813.19 4579.88,1889.46 "/>
  <path id="4" class="fil1" d="M5173.6 1889.46l0 -219.97c0,-82.57 -52.32,-122.9 -149.38,-122.9 -57.36,0 -88.87,10.71 -123.53,45.38l64.29 64.29c16.39,-16.39 27.73,-22.69 54.21,-22.69 35.92,0 51.05,11.35 51.05,42.23l0 8.83 -68.7 0c-80.68,0 -115.34,47.27 -115.34,98.32 0,31.51 10.09,59.88 29.62,79.41 18.91,18.91 47.27,30.25 81.3,30.25 35.93,0 54.84,-10.08 75.63,-30.88l0 27.73 100.85 0zm-103.37 -127.32c0,16.39 -2.52,27.1 -10.09,34.03 -11.34,10.72 -20.8,12.61 -40.96,12.61 -22.69,0 -34.03,-13.24 -34.03,-28.36 0,-15.76 12.6,-27.1 32.77,-27.1l52.31 0 0 8.83z"/>
  <path id="5" class="fil1" d="M5526.56 1889.46l0 -448.13 -103.37 0 0 133.62c-18.91,-18.91 -42.23,-28.36 -75.63,-28.36 -32.77,0 -62.4,11.34 -81.93,30.88 -33.4,33.4 -31.51,92.65 -31.51,142.44 0,49.79 -1.89,109.04 31.51,142.44 19.54,19.54 49.79,30.88 82.56,30.88 35.29,0 57.36,-10.71 78.15,-31.51l0 27.73 100.22 0zm-103.37 -169.55c0,49.16 -4.41,80.04 -42.86,80.04 -38.44,0 -42.86,-30.88 -42.86,-80.04 0,-49.16 4.42,-80.04 42.86,-80.04 38.45,0 42.86,30.88 42.86,80.04z"/>
  <path id="6" class="fil1" d="M5853.68 1849.75l-69.96 -69.96c-13.24,13.24 -24.58,20.17 -41.6,20.17 -13.86,0 -23.32,-4.41 -32.14,-13.24 -11.97,-12.61 -17.02,-34.66 -17.02,-66.81 0,-32.14 5.05,-54.21 17.02,-66.81 8.83,-8.83 18.28,-13.24 32.14,-13.24 17.02,0 28.36,6.93 41.6,20.17l69.96 -69.96c-27.73,-27.73 -64.29,-43.49 -111.56,-43.49 -58.61,0 -152.52,25.21 -152.52,173.33 0,148.12 93.91,173.33 152.52,173.33 47.28,0 83.83,-15.76 111.56,-43.49z"/>
  <path id="7" class="fil1" d="M6166.92 1889.46l0 -219.97c0,-82.57 -52.32,-122.9 -149.38,-122.9 -57.36,0 -88.87,10.71 -123.53,45.38l64.29 64.29c16.39,-16.39 27.73,-22.69 54.21,-22.69 35.92,0 51.05,11.35 51.05,42.23l0 8.83 -68.7 0c-80.68,0 -115.34,47.27 -115.34,98.32 0,31.51 10.09,59.88 29.62,79.41 18.91,18.91 47.27,30.25 81.3,30.25 35.93,0 54.84,-10.08 75.63,-30.88l0 27.73 100.85 0zm-103.37 -127.32c0,16.39 -2.52,27.1 -10.09,34.03 -11.34,10.72 -20.8,12.61 -40.96,12.61 -22.69,0 -34.03,-13.24 -34.03,-28.36 0,-15.76 12.6,-27.1 32.77,-27.1l52.31 0 0 8.83z"/>
  <g id="_2384082041312">
   <polygon class="fil0" points="6364.79,1889.46 6364.79,1776.01 6251.34,1776.01 6251.34,1889.46 "/>
   <path class="fil0" d="M6732.25 1719.91c0,-49.79 1.89,-109.04 -31.51,-142.44 -19.54,-19.54 -49.8,-30.88 -82.57,-30.88 -35.29,0 -57.36,10.71 -78.15,31.51l0 -27.73 -100.21 0 0 448.76 103.36 0 0 -134.25c18.91,18.91 42.23,28.36 75.63,28.36 32.77,0 62.4,-11.34 81.94,-30.88 33.4,-33.4 31.51,-92.65 31.51,-142.44zm-103.37 0c0,49.16 -4.41,80.04 -42.86,80.04 -38.44,0 -42.86,-30.88 -42.86,-80.04 0,-49.16 4.42,-80.04 42.86,-80.04 38.45,0 42.86,30.88 42.86,80.04z"/>
   <path class="fil0" d="M6955.36 1889.46l0 -86.98 -35.93 0c-13.86,0 -20.8,-7.45 -20.8,-20.69l0 -340.46 -103.37 0 0 348.02c0,46.54 30.25,100.11 105.26,100.11l54.84 0z"/>
  </g>
  <g id="_2384081981568">
   <path class="fil2 str0" d="M3951.22 307.59c0,-73.9 -13.51,-133.91 -40.51,-180.42 -46.89,-81.02 -133.91,-121.54 -261.45,-121.54l-724.71 0c-127.91,0 -214.94,40.51 -261.45,121.54 -20.63,35.26 -33.02,78.4 -37.89,129.04 -1.88,16.13 -2.63,33.39 -2.63,51.39l0 724.72c0,18 0.75,35.26 2.63,51.77 0.75,7.88 1.87,15.38 3,23.26 15.38,100.16 63.77,167.3 145.54,201.06 41.64,17.26 91.9,25.89 150.8,25.89l724.71 0c174.43,0 273.46,-75.77 296.71,-226.95 3.38,-23.26 5.25,-48.39 5.25,-75.02l0 -724.72z"/>
   <path class="fil3" d="M3834.36 1118.54c6.54,-22.32 10,-48.09 10,-76.94l0 -743.29c0,-116.57 -55.02,-178.51 -165.05,-185.05 -6.54,-0.39 -13.47,-0.77 -20.77,-0.77l-743.29 0c-7.31,0 -14.24,0.38 -20.77,0.77 -110.03,6.54 -165.05,68.48 -165.05,185.05l0 743.29c0,28.85 3.46,54.62 10.39,76.94 21.93,72.71 80.4,108.88 175.44,108.88l743.29 0c95.02,0 153.5,-36.17 175.82,-108.88z"/>
  </g>
  <g id="_2384081985600">
   <polygon class="fil4" points="3638.87,317.98 3638.86,317.98 3638.86,317.97 3236.38,181.75 3063.31,354.82 3465.79,491.05 3602.02,893.53 3775.09,720.46 "/>
   <polygon class="fil4" points="3374.25,582.6 3374.24,582.6 3374.24,582.59 2971.76,446.37 2798.7,619.43 3201.18,755.67 3337.41,1158.14 3510.47,985.08 "/>
  </g>
 </g>
</svg>
