<?xml version="1.0" encoding="UTF-8"?>
<!DOCTYPE svg PUBLIC "-//W3C//DTD SVG 1.1//EN" "http://www.w3.org/Graphics/SVG/1.1/DTD/svg11.dtd">
<!-- Creator: CorelDRAW 2019 (64-Bit) -->
<svg xmlns="http://www.w3.org/2000/svg" xml:space="preserve" width="66.4965mm" height="36.2131mm" version="1.1" style="shape-rendering:geometricPrecision; text-rendering:geometricPrecision; image-rendering:optimizeQuality; fill-rule:evenodd; clip-rule:evenodd"
viewBox="0 0 2708.65 1475.1"
 xmlns:xlink="http://www.w3.org/1999/xlink"
 xmlns:xodm="http://www.corel.com/coreldraw/odm/2003">
 <defs>
  <style type="text/css">
   <![CDATA[
    .str0 {stroke:black;stroke-width:8.15;stroke-miterlimit:22.9256}
    .fil6 {fill:#FEFEFE}
    .fil0 {fill:black;fill-rule:nonzero}
    .fil4 {fill:white;fill-rule:nonzero}
    .fil5 {fill:url(#id0);fill-rule:nonzero}
    .fil3 {fill:url(#id1);fill-rule:nonzero}
    .fil1 {fill:url(#id2);fill-rule:nonzero}
    .fil2 {fill:url(#id3);fill-rule:nonzero}
   ]]>
  </style>
  <linearGradient id="id0" gradientUnits="userSpaceOnUse" x1="1338.6" y1="81.45" x2="1338.6" y2="888.77">
   <stop offset="0" style="stop-opacity:1; stop-color:#DA4A00"/>
   <stop offset="0.321569" style="stop-opacity:1; stop-color:#CA2500"/>
   <stop offset="1" style="stop-opacity:1; stop-color:#BA0000"/>
  </linearGradient>
  <linearGradient id="id1" gradientUnits="userSpaceOnUse" xlink:href="#id0" x1="1974.33" y1="1144.68" x2="1974.33" y2="1392.95">
  </linearGradient>
  <linearGradient id="id2" gradientUnits="userSpaceOnUse" xlink:href="#id0" x1="1379.27" y1="1068.46" x2="1379.27" y2="1392.95">
  </linearGradient>
  <linearGradient id="id3" gradientUnits="userSpaceOnUse" xlink:href="#id0" x1="1648.01" y1="1144.68" x2="1648.01" y2="1395.68">
  </linearGradient>
 </defs>
 <g id="Warstwa_x0020_1">
  <metadata id="CorelCorpID_0Corel-Layer"/>
  <polygon class="fil0" points="239.6,1139.65 239.6,1068.46 -0,1068.46 -0,1139.65 79.87,1139.65 79.87,1392.95 159.74,1392.95 159.74,1139.65 "/>
  <path class="fil0" d="M454.56 1270.18c0,-47.92 -6.39,-71.65 -26.93,-94.01 -14.6,-15.52 -39.25,-31.49 -78.95,-31.49 -39.7,0 -64.35,15.97 -78.95,31.49 -20.54,22.36 -26.93,46.09 -26.93,94.01 0,48.38 6.39,71.65 26.93,94.01 14.6,15.52 39.25,31.49 78.95,31.49 39.71,0 64.35,-15.97 78.95,-31.49 20.54,-22.36 26.93,-45.64 26.93,-94.01zm-74.85 0c0,24.19 -1.37,41.53 -10.95,51.12 -4.56,4.56 -10.95,6.84 -20.08,6.84 -9.13,0 -15.52,-2.28 -20.08,-6.84 -9.58,-9.58 -10.95,-26.93 -10.95,-51.12 0,-24.19 1.37,-41.53 10.95,-51.12 4.57,-4.56 10.95,-6.84 20.08,-6.84 9.13,0 15.52,2.28 20.08,6.84 9.58,9.58 10.95,26.93 10.95,51.12z"/>
  <polygon class="fil0" points="810.08,1392.95 810.08,1068.46 731.59,1068.46 658.57,1211.54 585.54,1068.46 507.05,1068.46 507.05,1392.95 586.91,1392.95 586.91,1237.55 633.01,1317.72 684.12,1317.72 730.22,1237.55 730.22,1392.95 "/>
  <path class="fil0" d="M1074.33 1270.18c0,-47.92 -6.39,-71.65 -26.93,-94.01 -14.6,-15.52 -39.25,-31.49 -78.95,-31.49 -39.7,0 -64.35,15.97 -78.95,31.49 -20.54,22.36 -26.93,46.09 -26.93,94.01 0,48.38 6.39,71.65 26.93,94.01 14.6,15.52 39.25,31.49 78.95,31.49 39.71,0 64.35,-15.97 78.95,-31.49 20.54,-22.36 26.93,-45.64 26.93,-94.01zm-74.85 0c0,24.19 -1.37,41.53 -10.95,51.12 -4.56,4.56 -10.95,6.84 -20.08,6.84 -9.13,0 -15.52,-2.28 -20.08,-6.84 -9.58,-9.58 -10.95,-26.93 -10.95,-51.12 0,-24.19 1.37,-41.53 10.95,-51.12 4.57,-4.56 10.95,-6.84 20.08,-6.84 9.13,0 15.52,2.28 20.08,6.84 9.58,9.58 10.95,26.93 10.95,51.12z"/>
  <path class="fil0" d="M1197.1 1402.53l0 -245.54 -74.84 0 0 240.06c0,9.58 -5.02,15.06 -15.06,15.06l-26.01 0 0 62.98 39.7 0c54.31,0 76.22,-38.79 76.22,-72.56zm0 -280.22l0 -57.05 -74.84 0 0 57.05 74.84 0z"/>
  <path class="fil1" d="M1500.14 1230.7c0,-51.04 4.11,-92.42 -33.77,-130.3 -22.36,-22.36 -53.85,-31.95 -87.63,-31.95l-120.49 0 0 324.49 120.49 0c33.77,0 65.26,-9.58 87.63,-31.95 37.88,-37.88 33.77,-79.26 33.77,-130.3zm-79.87 0c0,55.07 -2.29,63.74 -8.67,72.87 -7.3,10.95 -18.26,18.18 -38.34,18.18l-35.14 0 0 -182.1 35.14 0c20.08,0 31.04,7.23 38.34,18.18 6.39,9.13 8.67,18.26 8.67,72.87z"/>
  <path class="fil2" d="M1753.89 1270.18c0,-47.92 -6.39,-71.65 -26.93,-94.01 -14.6,-15.52 -39.25,-31.49 -78.95,-31.49 -39.7,0 -64.35,15.97 -78.95,31.49 -20.54,22.36 -26.93,46.09 -26.93,94.01 0,48.38 6.39,71.65 26.93,94.01 14.6,15.52 39.25,31.49 78.95,31.49 39.71,0 64.35,-15.97 78.95,-31.49 20.54,-22.36 26.93,-45.64 26.93,-94.01zm-74.85 0c0,24.19 -1.37,41.53 -10.95,51.12 -4.56,4.56 -10.95,6.84 -20.08,6.84 -9.13,0 -15.52,-2.28 -20.08,-6.84 -9.58,-9.58 -10.95,-26.93 -10.95,-51.12 0,-24.19 1.37,-41.53 10.95,-51.12 4.57,-4.56 10.95,-6.84 20.08,-6.84 9.13,0 15.52,2.28 20.08,6.84 9.58,9.58 10.95,26.93 10.95,51.12z"/>
  <path class="fil3" d="M2146.85 1392.95l0 -157c0,-26.01 -5.93,-49.29 -26.93,-70.28 -13.23,-13.24 -35.6,-20.99 -58.87,-20.99 -28.3,0 -47.92,7.3 -69.37,26.01 -15.98,-18.26 -35.6,-26.01 -59.79,-26.01 -19.63,0 -41.99,7.76 -57.05,22.82l0 -20.08 -73.02 0 0 245.54 74.84 0 0 -146.96c0,-28.3 20.08,-33.77 30.12,-33.77 10.04,0 30.12,5.47 30.12,33.77l0 146.96 74.84 0 0 -146.96c0,-28.3 20.08,-33.77 30.12,-33.77 10.04,0 30.12,5.47 30.12,33.77l0 146.96 74.85 0z"/>
  <polygon class="fil0" points="2281.02,1392.95 2281.02,1310.8 2198.87,1310.8 2198.87,1392.95 "/>
  <path class="fil0" d="M2547.1 1270.18c0,-36.05 1.37,-78.95 -22.82,-103.14 -14.15,-14.15 -36.06,-22.36 -59.79,-22.36 -25.56,0 -41.53,7.76 -56.59,22.82l0 -20.08 -72.56 0 0 324.95 74.84 0 0 -97.21c13.69,13.69 30.58,20.54 54.77,20.54 23.73,0 45.18,-8.21 59.33,-22.36 24.19,-24.19 22.82,-67.09 22.82,-103.14zm-74.85 0c0,35.6 -3.19,57.96 -31.04,57.96 -27.84,0 -31.04,-22.36 -31.04,-57.96 0,-35.6 3.2,-57.96 31.04,-57.96 27.84,0 31.04,22.36 31.04,57.96z"/>
  <path class="fil0" d="M2708.65 1392.95l0 -62.98 -26.02 0c-10.04,0 -15.06,-5.4 -15.06,-14.98l0 -246.52 -74.85 0 0 252c0,33.7 21.91,72.49 76.22,72.49l39.71 0z"/>
  <g id="_2425994741632">
   <path class="fil4 str0" d="M1819.63 222.72c0,-53.51 -9.78,-96.97 -29.34,-130.65 -33.95,-58.67 -96.97,-88.01 -189.32,-88.01l-524.77 0c-92.62,0 -155.64,29.34 -189.31,88.01 -14.94,25.53 -23.91,56.77 -27.43,93.44 -1.36,11.68 -1.9,24.18 -1.9,37.21l0 524.77c0,13.03 0.54,25.53 1.9,37.48 0.54,5.7 1.36,11.14 2.17,16.84 11.14,72.52 46.18,121.14 105.39,145.59 30.15,12.5 66.55,18.75 109.2,18.75l524.76 0c126.3,0 198.01,-54.87 214.85,-164.33 2.45,-16.84 3.8,-35.04 3.8,-54.32l0 -524.77z"/>
   <path class="fil5" d="M1735.01 809.93c4.73,-16.16 7.24,-34.82 7.24,-55.71l0 -538.22c0,-84.41 -39.84,-129.26 -119.51,-134 -4.74,-0.28 -9.75,-0.56 -15.04,-0.56l-538.22 0c-5.3,0 -10.31,0.28 -15.04,0.56 -79.68,4.74 -119.51,49.59 -119.51,134l0 538.22c0,20.89 2.51,39.55 7.52,55.71 15.88,52.65 58.22,78.84 127.03,78.84l538.22 0c68.8,0 111.15,-26.19 127.31,-78.84z"/>
  </g>
  <g id="_2425994742176">
   <polygon class="fil6" points="1035.6,263.86 1036.71,264.42 1329.73,116.87 1634.28,270.22 1475.58,350.14 1329.73,276.7 1195.32,344.38 1195.55,344.49 1195.55,781.82 1035.6,701.2 "/>
   <polygon class="fil6" points="1369.42,853.35 1641.6,717.47 1641.6,548.76 1369.42,684.63 "/>
   <polygon class="fil6" points="1369.42,627.7 1641.6,491.82 1641.6,323.11 1369.42,458.99 "/>
  </g>
 </g>
</svg>
