<?xml version="1.0" encoding="UTF-8"?>
<!DOCTYPE svg PUBLIC "-//W3C//DTD SVG 1.1//EN" "http://www.w3.org/Graphics/SVG/1.1/DTD/svg11.dtd">
<!-- Creator: CorelDRAW 2019 (64-Bit) -->
<svg xmlns="http://www.w3.org/2000/svg" xml:space="preserve" width="23.6185mm" height="23.6186mm" version="1.1" style="shape-rendering:geometricPrecision; text-rendering:geometricPrecision; image-rendering:optimizeQuality; fill-rule:evenodd; clip-rule:evenodd"
viewBox="0 0 460.52 460.52"
 xmlns:xlink="http://www.w3.org/1999/xlink"
 xmlns:xodm="http://www.corel.com/coreldraw/odm/2003">
 <defs>
  <style type="text/css">
   <![CDATA[
    .fil1 {fill:white}
    .fil0 {fill:rgb(10, 69,79);fill-rule:nonzero}
   ]]>
  </style>
 </defs>
 <g id="Warstwa_x0020_1">
  <metadata id="CorelCorpID_0Corel-Layer"/>
  <g id="_2425994749280">
   <path class="fil0" d="M460.52 104.66c0,-25.61 -4.68,-46.42 -14.04,-62.54 -16.25,-28.08 -46.42,-42.13 -90.62,-42.13l-251.19 0c-44.33,0 -74.5,14.04 -90.62,42.13 -7.15,12.22 -11.44,27.17 -13.13,44.72 -0.65,5.59 -0.91,11.57 -0.91,17.81l0 251.19c0,6.24 0.26,12.22 0.91,17.94 0.26,2.73 0.65,5.33 1.04,8.06 5.33,34.71 22.1,57.99 50.45,69.69 14.43,5.98 31.85,8.97 52.27,8.97l251.19 0c60.46,0 94.78,-26.26 102.84,-78.66 1.17,-8.06 1.82,-16.77 1.82,-26l0 -251.19z"/>
   <path class="fil1" d="M420.01 385.74c2.27,-7.73 3.47,-16.67 3.47,-26.67l0 -257.63c0,-40.4 -19.07,-61.87 -57.21,-64.14 -2.27,-0.13 -4.67,-0.27 -7.2,-0.27l-257.63 0c-2.53,0 -4.93,0.13 -7.2,0.27 -38.14,2.27 -57.21,23.74 -57.21,64.14l0 257.63c0,10 1.2,18.93 3.6,26.67 7.6,25.2 27.87,37.74 60.81,37.74l257.63 0c32.93,0 53.2,-12.54 60.94,-37.74z"/>
   <polygon class="fil0" points="363.52,77.75 287.21,77.75 287.21,230.13 230.39,172.66 172.92,230.13 172.92,77.75 96.73,77.75 96.73,382.51 172.92,382.51 172.92,344.41 230.39,287.47 287.21,344.41 287.21,382.51 363.52,382.51 "/>
  </g>
 </g>
</svg>
