<?xml version="1.0" encoding="UTF-8"?>
<!DOCTYPE svg PUBLIC "-//W3C//DTD SVG 1.1//EN" "http://www.w3.org/Graphics/SVG/1.1/DTD/svg11.dtd">
<!-- Creator: CorelDRAW 2019 (64-Bit) -->
<svg xmlns="http://www.w3.org/2000/svg" xml:space="preserve" width="39.4425mm" height="34.5098mm" version="1.1" style="shape-rendering:geometricPrecision; text-rendering:geometricPrecision; image-rendering:optimizeQuality; fill-rule:evenodd; clip-rule:evenodd"
viewBox="0 0 1006.63 880.74"
 xmlns:xlink="http://www.w3.org/1999/xlink"
 xmlns:xodm="http://www.corel.com/coreldraw/odm/2003">
 <defs>
  <style type="text/css">
   <![CDATA[
    .str0 {stroke:black;stroke-width:5.1;stroke-miterlimit:22.9256}
    .fil0 {fill:#1C1B17;fill-rule:nonzero}
    .fil2 {fill:white;fill-rule:nonzero}
    .fil3 {fill:url(#id0);fill-rule:nonzero}
    .fil1 {fill:url(#id1);fill-rule:nonzero}
   ]]>
  </style>
  <linearGradient id="id0" gradientUnits="userSpaceOnUse" x1="506.41" y1="51.03" x2="506.41" y2="556.85">
   <stop offset="0" style="stop-opacity:1; stop-color:#DA4A00"/>
   <stop offset="0.321569" style="stop-opacity:1; stop-color:#CA2500"/>
   <stop offset="1" style="stop-opacity:1; stop-color:#BA0000"/>
  </linearGradient>
  <linearGradient id="id1" gradientUnits="userSpaceOnUse" xlink:href="#id0" x1="938.86" y1="673.72" x2="938.86" y2="880.74">
  </linearGradient>
 </defs>
 <g id="Warstwa_x0020_1">
  <metadata id="CorelCorpID_0Corel-Layer"/>
  <polygon class="fil0" points="259.07,675.72 206.74,675.72 180.15,783.09 147.26,675.72 111.8,675.72 78.92,783.09 52.33,675.72 -0,675.72 56.05,879.02 96.65,879.02 129.53,778.8 162.42,879.02 203.31,879.02 "/>
  <path id="1" class="fil0" d="M396.61 817.26l0 -20.87c0,-40.32 -24.59,-72.91 -69.2,-72.91 -40.32,0 -68.91,28.31 -68.91,78.63 0,66.34 39.17,78.63 73.2,78.63 28.59,0 44.03,-8.58 59.76,-24.3l-28.02 -28.02c-8.29,8.29 -15.44,12.87 -31.74,12.87 -17.44,0 -27.17,-11.44 -27.17,-24.02l92.07 0zm-46.32 -31.17l-45.75 0c0,-3.72 0.57,-8.01 2.58,-12.01 2.86,-6.58 9.15,-12.01 20.3,-12.01 11.15,0 17.44,5.43 20.3,12.01 2,4 2.58,8.29 2.58,12.01z"/>
  <path id="2" class="fil0" d="M496.4 879.02l0 -39.46 -16.3 0c-6.29,0 -9.44,-3.38 -9.44,-9.39l0 -154.46 -46.9 0 0 157.89c0,21.11 13.73,45.42 47.75,45.42l24.88 0z"/>
  <path id="3" class="fil0" d="M646.81 817.26l0 -20.87c0,-40.32 -24.59,-72.91 -69.2,-72.91 -40.32,0 -68.91,28.31 -68.91,78.63 0,66.34 39.17,78.63 73.2,78.63 28.59,0 44.03,-8.58 59.76,-24.3l-28.02 -28.02c-8.29,8.29 -15.44,12.87 -31.74,12.87 -17.44,0 -27.17,-11.44 -27.17,-24.02l92.07 0zm-46.32 -31.17l-45.75 0c0,-3.72 0.57,-8.01 2.58,-12.01 2.86,-6.58 9.15,-12.01 20.3,-12.01 11.15,0 17.44,5.43 20.3,12.01 2,4 2.58,8.29 2.58,12.01z"/>
  <path id="4" class="fil0" d="M794.07 828.7c0,-24.59 -14.01,-43.75 -46.32,-46.9l-23.73 -2.29c-10.58,-1.14 -10.01,-6.86 -10.01,-8.58 0,-3.43 3.72,-8.87 15.15,-8.87 12.01,0 24.88,1.43 32.6,9.15l28.88 -28.88c-15.15,-15.15 -35.46,-18.87 -60.62,-18.87 -30.6,0 -61.19,16.87 -61.19,50.9 0,30.02 18.01,42.03 44.61,44.61l23.73 2.29c9.15,0.86 11.15,5.43 11.15,9.72 0,8.01 -13.15,10.01 -20.02,10.01 -8.01,0 -24.59,0 -37.46,-12.87l-30.31 30.31c21.16,21.16 43.75,22.3 66.91,22.3 35.74,0 66.63,-15.73 66.63,-52.04z"/>
  <path class="fil1" d="M1006.63 818.12c0,-24.3 -12.3,-36.6 -23.45,-44.32 10.29,-6.58 21.16,-17.44 21.16,-39.75 0,-35.17 -27.74,-60.33 -65.48,-60.33 -36.31,0 -65.48,23.16 -65.48,61.48l46.9 0c0,-12.29 8.86,-19.16 18.58,-19.16 9.72,0 18.59,6.58 18.59,19.44 0,9.15 -5.43,19.16 -19.44,19.16l-6.58 0 0 40.6 6.58 0c12.58,0 21.73,9.15 21.73,21.45 0,14.58 -8.58,21.73 -20.87,21.73 -11.72,0 -20.87,-7.15 -20.87,-21.45l-46.89 0c0,45.75 34.03,63.77 67.77,63.77 35.75,0 67.77,-20.02 67.77,-62.62z"/>
  <g id="_2425994745632">
   <path class="fil2 str0" d="M807.8 139.55c0,-33.52 -6.13,-60.75 -18.38,-81.85 -21.27,-36.76 -60.75,-55.14 -118.62,-55.14l-328.79 0c-58.03,0 -97.51,18.38 -118.61,55.14 -9.36,16 -14.98,35.57 -17.19,58.54 -0.85,7.32 -1.19,15.15 -1.19,23.31l0 328.79c0,8.17 0.34,16 1.19,23.48 0.34,3.57 0.85,6.98 1.36,10.55 6.98,45.44 28.93,75.9 66.03,91.22 18.89,7.83 41.69,11.74 68.42,11.74l328.78 0c79.13,0 124.06,-34.38 134.61,-102.96 1.53,-10.55 2.38,-21.95 2.38,-34.04l0 -328.79z"/>
   <path class="fil3" d="M754.78 507.46c2.97,-10.12 4.54,-21.82 4.54,-34.91l0 -337.21c0,-52.89 -24.96,-80.99 -74.88,-83.96 -2.97,-0.18 -6.11,-0.35 -9.42,-0.35l-337.21 0c-3.32,0 -6.46,0.17 -9.43,0.35 -49.92,2.97 -74.88,31.07 -74.88,83.96l0 337.21c0,13.09 1.57,24.78 4.71,34.91 9.95,32.99 36.48,49.4 79.59,49.4l337.21 0c43.11,0 69.64,-16.41 79.76,-49.4z"/>
   <polygon class="fil2" points="680.84,104.32 580.95,104.32 580.95,303.77 506.58,228.55 431.36,303.77 431.36,104.32 331.63,104.32 331.63,503.22 431.36,503.22 431.36,453.36 506.58,378.82 580.95,453.36 580.95,503.22 680.84,503.22 "/>
  </g>
 </g>
</svg>
