<?xml version="1.0" encoding="UTF-8"?>
<!DOCTYPE svg PUBLIC "-//W3C//DTD SVG 1.1//EN" "http://www.w3.org/Graphics/SVG/1.1/DTD/svg11.dtd">
<!-- Creator: CorelDRAW 2019 (64-Bit) -->
<svg xmlns="http://www.w3.org/2000/svg" xml:space="preserve" width="155.577mm" height="23.8186mm" version="1.1" style="shape-rendering:geometricPrecision; text-rendering:geometricPrecision; image-rendering:optimizeQuality; fill-rule:evenodd; clip-rule:evenodd"
viewBox="0 0 9692.32 1483.88"
 xmlns:xlink="http://www.w3.org/1999/xlink"
 xmlns:xodm="http://www.corel.com/coreldraw/odm/2003">
 <defs>
  <style type="text/css">
   <![CDATA[
    .str0 {stroke:#2B2A29;stroke-width:12.46;stroke-miterlimit:22.9256}
    .fil4 {fill:#FEFEFE}
    .fil2 {fill:black;fill-rule:nonzero}
    .fil0 {fill:white;fill-rule:nonzero}
    .fil1 {fill:url(#id0);fill-rule:nonzero}
    .fil3 {fill:url(#id1);fill-rule:nonzero}
   ]]>
  </style>
  <linearGradient id="id0" gradientUnits="userSpaceOnUse" x1="741.94" y1="124.57" x2="741.94" y2="1359.31">
   <stop offset="0" style="stop-opacity:1; stop-color:#DA4A00"/>
   <stop offset="0.321569" style="stop-opacity:1; stop-color:#CA2500"/>
   <stop offset="1" style="stop-opacity:1; stop-color:#BA0000"/>
  </linearGradient>
  <linearGradient id="id1" gradientUnits="objectBoundingBox" xlink:href="#id0" x1="44.5502%" y1="25.2741%" x2="44.5502%" y2="95.5393%">
  </linearGradient>
 </defs>
 <g id="Warstwa_x0020_1">
  <metadata id="CorelCorpID_0Corel-Layer"/>
  <g id="_2426023690816">
   <path class="fil0 str0" d="M1477.64 340.64c0,-81.84 -14.96,-148.3 -44.87,-199.81 -51.93,-89.73 -148.3,-134.6 -289.55,-134.6l-802.59 0c-141.66,0 -238.03,44.87 -289.54,134.6 -22.85,39.05 -36.56,86.82 -41.96,142.9 -2.08,17.86 -2.91,36.97 -2.91,56.91l0 802.59c0,19.94 0.83,39.05 2.91,57.33 0.83,8.72 2.07,17.03 3.32,25.75 17.03,110.92 70.62,185.28 161.18,222.66 46.11,19.11 101.78,28.67 167.01,28.67l802.58 0c193.17,0 302.84,-83.92 328.6,-251.33 3.74,-25.75 5.82,-53.59 5.82,-83.08l0 -802.59z"/>
   <path class="fil1" d="M1348.23 1238.73c7.24,-24.71 11.08,-53.25 11.08,-85.21l0 -823.16c0,-129.1 -60.93,-197.69 -182.79,-204.94 -7.25,-0.43 -14.91,-0.85 -23,-0.85l-823.16 0c-8.1,0 -15.77,0.42 -23.01,0.85 -121.86,7.25 -182.79,75.84 -182.79,204.94l0 823.16c0,31.95 3.83,60.49 11.51,85.21 24.28,80.53 89.04,120.58 194.29,120.58l823.16 0c105.23,0 170,-40.05 194.71,-120.58z"/>
  </g>
  <polygon class="fil2" points="2326.68,515.81 2198.95,515.81 2134.04,777.91 2053.76,515.81 1967.21,515.81 1886.94,777.91 1822.03,515.81 1694.29,515.81 1831.1,1012.09 1930.22,1012.09 2010.49,767.44 2090.76,1012.09 2190.57,1012.09 "/>
  <path id="1" class="fil2" d="M2631.72 889.24c0,-60.03 -34.2,-106.79 -113.08,-114.47l-57.93 -5.58c-25.83,-2.79 -24.43,-16.75 -24.43,-20.94 0,-8.38 9.08,-21.64 36.99,-21.64 29.32,0 60.73,3.49 79.57,22.34l70.5 -70.5c-36.99,-36.99 -86.55,-46.06 -147.98,-46.06 -74.68,0 -149.37,41.18 -149.37,124.24 0,73.29 43.97,102.61 108.89,108.89l57.93 5.59c22.34,2.09 27.22,13.26 27.22,23.73 0,19.54 -32.11,24.43 -48.86,24.43 -19.54,0 -60.03,0 -91.44,-31.41l-73.99 73.99c51.65,51.65 106.8,54.44 163.34,54.44 87.25,0 162.64,-38.39 162.64,-127.03z"/>
  <path id="2" class="fil2" d="M3017.72 824.32c0,-55.14 2.09,-120.75 -34.9,-157.75 -21.64,-21.64 -55.15,-34.2 -91.44,-34.2 -39.09,0 -63.52,11.86 -86.55,34.9l0 -30.71 -110.98 0 0 496.98 114.47 0 0 -148.68c20.94,20.95 46.77,31.41 83.76,31.41 36.3,0 69.1,-12.56 90.75,-34.2 36.99,-36.99 34.9,-102.61 34.9,-157.75zm-114.47 0c0,54.44 -4.88,88.65 -47.47,88.65 -42.58,0 -47.47,-34.2 -47.47,-88.65 0,-54.44 4.89,-88.65 47.47,-88.65 42.58,0 47.47,34.2 47.47,88.65z"/>
  <path id="3" class="fil2" d="M3401.62 824.32c0,-73.29 -9.77,-109.58 -41.19,-143.79 -22.33,-23.74 -60.03,-48.16 -120.75,-48.16 -60.72,0 -98.42,24.43 -120.75,48.16 -31.41,34.2 -41.18,70.5 -41.18,143.79 0,73.99 9.77,109.58 41.18,143.79 22.33,23.74 60.03,48.16 120.75,48.16 60.73,0 98.42,-24.43 120.75,-48.16 31.41,-34.2 41.19,-69.8 41.19,-143.79zm-114.47 0c0,36.99 -2.09,63.52 -16.75,78.18 -6.98,6.98 -16.75,10.47 -30.71,10.47 -13.96,0 -23.73,-3.49 -30.71,-10.47 -14.65,-14.66 -16.75,-41.19 -16.75,-78.18 0,-36.99 2.1,-63.52 16.75,-78.18 6.98,-6.98 16.75,-10.47 30.71,-10.47 13.96,0 23.74,3.49 30.71,10.47 14.66,14.66 16.75,41.19 16.75,78.18z"/>
  <path id="4" class="fil2" d="M3648.72 1012.09l0 -96.33 -39.79 0c-15.35,0 -23.03,-8.25 -23.03,-22.91l0 -377.04 -114.47 0 0 385.41c0,51.54 33.5,110.87 116.57,110.87l60.73 0z"/>
  <path id="5" class="fil2" d="M4034.01 1012.09l0 -240.11c0,-39.78 -5.58,-75.39 -37.69,-107.49 -20.24,-20.25 -48.86,-32.11 -84.46,-32.11 -30.02,0 -64.22,11.86 -87.25,34.9l0 -30.71 -111.68 0 0 375.53 114.47 0 0 -224.76c0,-43.28 30.71,-51.65 46.07,-51.65 15.36,0 46.07,8.37 46.07,51.65l0 224.76 114.47 0z"/>
  <path id="6" class="fil2" d="M4427.69 824.32c0,-73.29 -9.77,-109.58 -41.19,-143.79 -22.33,-23.74 -60.03,-48.16 -120.75,-48.16 -60.72,0 -98.42,24.43 -120.75,48.16 -31.41,34.2 -41.18,70.5 -41.18,143.79 0,73.99 9.77,109.58 41.18,143.79 22.33,23.74 60.03,48.16 120.75,48.16 60.73,0 98.42,-24.43 120.75,-48.16 31.41,-34.2 41.19,-69.8 41.19,-143.79zm-114.47 0c0,36.99 -2.09,63.52 -16.75,78.18 -6.98,6.98 -16.75,10.47 -30.71,10.47 -13.96,0 -23.73,-3.49 -30.71,-10.47 -14.65,-14.66 -16.75,-41.19 -16.75,-78.18 0,-36.99 2.1,-63.52 16.75,-78.18 6.98,-6.98 16.75,-10.47 30.71,-10.47 13.96,0 23.74,3.49 30.71,10.47 14.66,14.66 16.75,41.19 16.75,78.18z"/>
  <path id="7" class="fil2" d="M4683.16 1012.09l0 -96.33 -36.3 0c-15.36,0 -23.03,-8.37 -23.03,-23.03l0 -153.56 59.33 0 0 -87.95 -59.33 0 0 -107.5 -114.47 0 0 107.5 -34.2 0 0 87.95 34.2 0 0 161.93c0,51.66 33.5,110.99 116.57,110.99l57.23 0z"/>
  <path id="8" class="fil2" d="M5075.44 636.56l-120.06 0 -60.72 194.74 -63.52 -194.74 -120.06 0 124.94 338.53 -10.47 31.41c-7.68,23.03 -18.15,27.92 -38.4,27.92l-24.43 0 0 103.3 43.28 0c33.5,0 62.12,-7.68 84.46,-31.41 11.86,-11.87 21.64,-27.92 29.31,-49.56l155.65 -420.2z"/>
  <polygon class="fil3" points="5535.77,1012.09 5360.57,716.6 5530.19,515.81 5380.81,515.81 5237.02,691.47 5237.02,515.81 5116.27,515.81 5116.27,1012.09 5237.02,1012.09 5237.02,856.66 5278.91,808.5 5393.38,1012.09 "/>
  <path id="1" class="fil3" d="M5868.73 889.24c0,-60.03 -34.2,-106.79 -113.08,-114.47l-57.93 -5.58c-25.83,-2.79 -24.43,-16.75 -24.43,-20.94 0,-8.38 9.08,-21.64 36.99,-21.64 29.32,0 60.73,3.49 79.57,22.34l70.5 -70.5c-36.99,-36.99 -86.55,-46.06 -147.98,-46.06 -74.68,0 -149.37,41.18 -149.37,124.24 0,73.29 43.97,102.61 108.89,108.89l57.93 5.59c22.34,2.09 27.22,13.26 27.22,23.73 0,19.54 -32.11,24.43 -48.86,24.43 -19.54,0 -60.03,0 -91.44,-31.41l-73.99 73.99c51.65,51.65 106.8,54.44 163.34,54.44 87.25,0 162.64,-38.39 162.64,-127.03z"/>
  <path id="2" class="fil3" d="M6045.32 1012.09l0 -360.87 -114.47 0 0 360.87 114.47 0zm0 -413.92l0 -87.25 -114.47 0 0 87.25 114.47 0z"/>
  <path id="3" class="fil3" d="M6452.26 861.32l0 -50.95c0,-98.42 -60.03,-177.99 -168.92,-177.99 -98.41,0 -168.21,69.1 -168.21,191.95 0,161.93 95.62,191.95 178.69,191.95 69.8,0 107.49,-20.94 145.89,-59.33l-68.4 -68.4c-20.25,20.24 -37.7,31.41 -77.48,31.41 -42.58,0 -66.31,-27.92 -66.31,-58.64l224.76 0zm-113.07 -76.08l-111.68 0c0,-9.08 1.4,-19.54 6.29,-29.32 6.98,-16.05 22.33,-29.32 49.55,-29.32 27.22,0 42.58,13.26 49.56,29.32 4.89,9.77 6.29,20.24 6.29,29.32z"/>
  <path id="4" class="fil3" d="M6827.09 984.86l0 -348.3 -110.98 0 0 30.71c-23.03,-23.04 -45.37,-34.9 -83.76,-34.9 -36.3,0 -67.01,11.86 -88.65,33.5 -34.2,34.2 -34.9,76.08 -34.9,144.48 0,68.4 0.7,110.29 34.9,144.49 21.64,21.64 51.65,33.5 87.95,33.5 34.9,0 60.03,-10.47 80.97,-31.41l0 27.22c0,24.43 -12.57,57.24 -60.73,57.24 -25.82,0 -46.77,-6.29 -64.22,-23.74l-71.2 71.2c38.39,38.39 82.37,48.86 141,48.86 102.61,0 169.62,-64.21 169.62,-152.86zm-114.47 -174.5c0,38.39 -2.79,74.69 -44.67,74.69 -41.88,0 -44.67,-36.3 -44.67,-74.69 0,-38.39 2.8,-74.68 44.67,-74.68 41.88,0 44.67,36.3 44.67,74.68z"/>
  <path id="5" class="fil3" d="M7224.26 824.32c0,-73.29 -9.77,-109.58 -41.19,-143.79 -22.33,-23.74 -60.03,-48.16 -120.75,-48.16 -60.72,0 -98.42,24.43 -120.75,48.16 -31.41,34.2 -41.18,70.5 -41.18,143.79 0,73.99 9.77,109.58 41.18,143.79 22.33,23.74 60.03,48.16 120.75,48.16 60.73,0 98.42,-24.43 120.75,-48.16 31.41,-34.2 41.19,-69.8 41.19,-143.79zm-114.47 0c0,36.99 -2.09,63.52 -16.75,78.18 -6.98,6.98 -16.75,10.47 -30.71,10.47 -13.96,0 -23.73,-3.49 -30.71,-10.47 -14.65,-14.66 -16.75,-41.19 -16.75,-78.18 0,-36.99 2.1,-63.52 16.75,-78.18 6.98,-6.98 16.75,-10.47 30.71,-10.47 13.96,0 23.74,3.49 30.71,10.47 14.66,14.66 16.75,41.19 16.75,78.18z"/>
  <polygon id="6" class="fil3" points="7793.13,636.56 7672.38,636.56 7625.61,831.3 7560.69,636.56 7481.12,636.56 7416.21,831.3 7369.44,636.56 7248.68,636.56 7361.76,1012.09 7453.2,1012.09 7520.91,806.18 7588.61,1012.09 7680.05,1012.09 "/>
  <path id="7" class="fil3" d="M8141.44 824.32c0,-73.29 -9.77,-109.58 -41.19,-143.79 -22.33,-23.74 -60.03,-48.16 -120.75,-48.16 -60.72,0 -98.42,24.43 -120.75,48.16 -31.41,34.2 -41.18,70.5 -41.18,143.79 0,73.99 9.77,109.58 41.18,143.79 22.33,23.74 60.03,48.16 120.75,48.16 60.73,0 98.42,-24.43 120.75,-48.16 31.41,-34.2 41.19,-69.8 41.19,-143.79zm-114.47 0c0,36.99 -2.09,63.52 -16.75,78.18 -6.98,6.98 -16.75,10.47 -30.71,10.47 -13.96,0 -23.73,-3.49 -30.71,-10.47 -14.65,-14.66 -16.75,-41.19 -16.75,-78.18 0,-36.99 2.1,-63.52 16.75,-78.18 6.98,-6.98 16.75,-10.47 30.71,-10.47 13.96,0 23.74,3.49 30.71,10.47 14.66,14.66 16.75,41.19 16.75,78.18z"/>
  <path id="8" class="fil3" d="M8504.41 889.24c0,-60.03 -34.2,-106.79 -113.08,-114.47l-57.93 -5.58c-25.83,-2.79 -24.43,-16.75 -24.43,-20.94 0,-8.38 9.08,-21.64 36.99,-21.64 29.32,0 60.73,3.49 79.57,22.34l70.5 -70.5c-36.99,-36.99 -86.55,-46.06 -147.98,-46.06 -74.68,0 -149.37,41.18 -149.37,124.24 0,73.29 43.97,102.61 108.89,108.89l57.93 5.59c22.34,2.09 27.22,13.26 27.22,23.73 0,19.54 -32.11,24.43 -48.86,24.43 -19.54,0 -60.03,0 -91.44,-31.41l-73.99 73.99c51.65,51.65 106.8,54.44 163.34,54.44 87.25,0 162.64,-38.39 162.64,-127.03z"/>
  <path id="9" class="fil3" d="M8842.24 968.11l-77.48 -77.48c-14.66,14.66 -27.22,22.33 -46.07,22.33 -15.35,0 -25.82,-4.88 -35.6,-14.66 -13.26,-13.96 -18.85,-38.39 -18.85,-73.99 0,-35.6 5.59,-60.03 18.85,-73.99 9.77,-9.77 20.25,-14.66 35.6,-14.66 18.85,0 31.41,7.68 46.07,22.33l77.48 -77.48c-30.71,-30.71 -71.2,-48.16 -123.55,-48.16 -64.91,0 -168.91,27.92 -168.91,191.95 0,164.03 104,191.95 168.91,191.95 52.36,0 92.84,-17.45 123.55,-48.16z"/>
  <g id="_2426023695872">
   <polygon class="fil2" points="9038.29,1012.09 9038.29,886.45 8912.65,886.45 8912.65,1012.09 "/>
   <path class="fil2" d="M9445.23 824.32c0,-55.14 2.09,-120.75 -34.9,-157.75 -21.64,-21.64 -55.15,-34.2 -91.44,-34.2 -39.09,0 -63.52,11.86 -86.55,34.9l0 -30.71 -110.98 0 0 496.98 114.47 0 0 -148.68c20.94,20.95 46.77,31.41 83.76,31.41 36.3,0 69.1,-12.56 90.75,-34.2 36.99,-36.99 34.9,-102.61 34.9,-157.75zm-114.47 0c0,54.44 -4.88,88.65 -47.47,88.65 -42.58,0 -47.47,-34.2 -47.47,-88.65 0,-54.44 4.89,-88.65 47.47,-88.65 42.58,0 47.47,34.2 47.47,88.65z"/>
   <path class="fil2" d="M9692.32 1012.09l0 -96.33 -39.79 0c-15.35,0 -23.03,-8.25 -23.03,-22.91l0 -377.04 -114.47 0 0 385.41c0,51.54 33.5,110.87 116.57,110.87l60.73 0z"/>
  </g>
  <g id="_2426023697568">
   <polygon class="fil4" points="946.47,1227.89 946.47,255.99 1193.9,255.99 1193.9,1103.29 "/>
   <polygon class="fil4" points="618.21,1227.89 618.21,579.34 865.65,579.34 865.65,1103.29 "/>
   <polygon class="fil4" points="289.97,1227.89 289.97,903.99 537.41,903.99 537.41,1103.29 "/>
  </g>
 </g>
</svg>
