<?xml version="1.0" encoding="UTF-8"?>
<!DOCTYPE svg PUBLIC "-//W3C//DTD SVG 1.1//EN" "http://www.w3.org/Graphics/SVG/1.1/DTD/svg11.dtd">
<!-- Creator: CorelDRAW 2019 (64-Bit) -->
<svg xmlns="http://www.w3.org/2000/svg" xml:space="preserve" width="23.6185mm" height="23.6186mm" version="1.1" style="shape-rendering:geometricPrecision; text-rendering:geometricPrecision; image-rendering:optimizeQuality; fill-rule:evenodd; clip-rule:evenodd"
viewBox="0 0 223.56 223.56"
 xmlns:xlink="http://www.w3.org/1999/xlink"
 xmlns:xodm="http://www.corel.com/coreldraw/odm/2003">
 <defs>
  <style type="text/css">
   <![CDATA[
    .str0 {stroke:rgb(10, 69,79);stroke-width:1.89;stroke-miterlimit:22.9256}
    .fil0 {fill:rgb(10, 69,79)}
    .fil1 {fill:white}
   ]]>
  </style>
 </defs>
 <g id="Warstwa_x0020_1">
  <metadata id="CorelCorpID_0Corel-Layer"/>
  <g id="_2425989570000">
   <path class="fil0" d="M223.56 50.81c0,-12.43 -2.27,-22.53 -6.82,-30.36 -7.89,-13.63 -22.53,-20.45 -43.99,-20.45l-121.94 0c-21.52,0 -36.17,6.82 -43.99,20.45 -3.47,5.93 -5.56,13.19 -6.37,21.71 -0.32,2.71 -0.44,5.62 -0.44,8.65l0 121.94c0,3.03 0.13,5.93 0.44,8.71 0.13,1.33 0.32,2.59 0.5,3.91 2.59,16.85 10.73,28.15 24.49,33.83 7.01,2.9 15.46,4.36 25.37,4.36l121.94 0c29.35,0 46.01,-12.75 49.93,-38.19 0.57,-3.91 0.88,-8.14 0.88,-12.62l0 -121.94z"/>
   <path class="fil1 str0" d="M203.9 187.26c1.1,-3.75 1.68,-8.09 1.68,-12.95l0 -125.07c0,-19.61 -9.26,-30.04 -27.77,-31.14 -1.1,-0.07 -2.27,-0.13 -3.49,-0.13l-125.07 0c-1.23,0 -2.4,0.06 -3.5,0.13 -18.51,1.1 -27.77,11.52 -27.77,31.14l0 125.07c0,4.85 0.58,9.19 1.75,12.95 3.69,12.23 13.53,18.32 29.52,18.32l125.07 0c15.99,0 25.83,-6.09 29.58,-18.32z"/>
  </g>
  <g id="_2428425597680">
   <polygon class="fil0" points="142.85,185.61 142.85,37.95 180.45,37.95 180.45,166.68 "/>
   <polygon class="fil0" points="92.98,185.61 92.98,87.07 130.57,87.07 130.57,166.68 "/>
   <polygon class="fil0" points="43.11,185.61 43.11,136.4 80.7,136.4 80.7,166.68 "/>
  </g>
 </g>
</svg>
