<?xml version="1.0" encoding="UTF-8"?>
<!DOCTYPE svg PUBLIC "-//W3C//DTD SVG 1.1//EN" "http://www.w3.org/Graphics/SVG/1.1/DTD/svg11.dtd">
<!-- Creator: CorelDRAW 2019 (64-Bit) -->
<svg xmlns="http://www.w3.org/2000/svg" xml:space="preserve" width="128.381mm" height="36.2131mm" version="1.1" style="shape-rendering:geometricPrecision; text-rendering:geometricPrecision; image-rendering:optimizeQuality; fill-rule:evenodd; clip-rule:evenodd"
viewBox="0 0 7251.9 2045.58"
 xmlns:xlink="http://www.w3.org/1999/xlink"
 xmlns:xodm="http://www.corel.com/coreldraw/odm/2003">
 <defs>
  <style type="text/css">
   <![CDATA[
    .str0 {stroke:black;stroke-width:11.3;stroke-miterlimit:22.9256}
    .fil4 {fill:#FEFEFE}
    .fil0 {fill:black;fill-rule:nonzero}
    .fil2 {fill:white;fill-rule:nonzero}
    .fil3 {fill:url(#id0);fill-rule:nonzero}
    .fil1 {fill:url(#id1);fill-rule:nonzero}
   ]]>
  </style>
  <linearGradient id="id0" gradientUnits="userSpaceOnUse" x1="3605.41" y1="112.95" x2="3605.41" y2="1232.5">
   <stop offset="0" style="stop-opacity:1; stop-color:#DA4A00"/>
   <stop offset="0.321569" style="stop-opacity:1; stop-color:#CA2500"/>
   <stop offset="1" style="stop-opacity:1; stop-color:#BA0000"/>
  </linearGradient>
  <linearGradient id="id1" gradientUnits="objectBoundingBox" xlink:href="#id0" x1="44.5502%" y1="25.2741%" x2="44.5502%" y2="95.5393%">
  </linearGradient>
 </defs>
 <g id="Warstwa_x0020_1">
  <metadata id="CorelCorpID_0Corel-Layer"/>
  <polygon class="fil0" points="573.4,1481.68 457.58,1481.68 398.72,1719.33 325.94,1481.68 247.46,1481.68 174.68,1719.33 115.82,1481.68 -0,1481.68 124.05,1931.67 213.92,1931.67 286.7,1709.84 359.48,1931.67 449.98,1931.67 "/>
  <path id="1" class="fil0" d="M849.98 1820.28c0,-54.43 -31.01,-96.83 -102.53,-103.8l-52.53 -5.06c-23.42,-2.53 -22.15,-15.19 -22.15,-18.99 0,-7.6 8.23,-19.62 33.54,-19.62 26.58,0 55.06,3.16 72.15,20.26l63.92 -63.93c-33.54,-33.54 -78.48,-41.77 -134.17,-41.77 -67.72,0 -135.43,37.34 -135.43,112.65 0,66.45 39.87,93.03 98.73,98.73l52.53 5.07c20.26,1.9 24.68,12.02 24.68,21.52 0,17.72 -29.11,22.15 -44.3,22.15 -17.72,0 -54.43,0 -82.91,-28.48l-67.09 67.08c46.83,46.83 96.84,49.36 148.1,49.36 79.11,0 147.47,-34.81 147.47,-115.18z"/>
  <path id="2" class="fil0" d="M1199.97 1761.42c0,-50 1.9,-109.49 -31.64,-143.03 -19.62,-19.62 -50,-31.01 -82.91,-31.01 -35.44,0 -57.59,10.76 -78.48,31.64l0 -27.85 -100.63 0 0 450.62 103.79 0 0 -134.81c18.99,18.99 42.41,28.48 75.95,28.48 32.91,0 62.66,-11.39 82.28,-31.01 33.54,-33.54 31.64,-93.03 31.64,-143.03zm-103.8 0c0,49.36 -4.43,80.38 -43.04,80.38 -38.6,0 -43.04,-31.01 -43.04,-80.38 0,-49.36 4.43,-80.38 43.04,-80.38 38.61,0 43.04,31.01 43.04,80.38z"/>
  <path id="3" class="fil0" d="M1548.05 1761.42c0,-66.45 -8.86,-99.36 -37.34,-130.37 -20.25,-21.52 -54.43,-43.67 -109.49,-43.67 -55.06,0 -89.24,22.15 -109.49,43.67 -28.48,31.01 -37.34,63.92 -37.34,130.37 0,67.08 8.86,99.36 37.34,130.37 20.25,21.52 54.43,43.67 109.49,43.67 55.06,0 89.24,-22.15 109.49,-43.67 28.48,-31.01 37.34,-63.29 37.34,-130.37zm-103.8 0c0,33.54 -1.9,57.59 -15.19,70.89 -6.33,6.33 -15.19,9.49 -27.85,9.49 -12.66,0 -21.52,-3.16 -27.85,-9.49 -13.29,-13.29 -15.19,-37.34 -15.19,-70.89 0,-33.54 1.9,-57.59 15.19,-70.89 6.33,-6.33 15.19,-9.49 27.85,-9.49 12.66,0 21.52,3.16 27.85,9.49 13.29,13.29 15.19,37.34 15.19,70.89z"/>
  <path id="4" class="fil0" d="M1772.1 1931.67l0 -87.34 -36.08 0c-13.92,0 -20.88,-7.48 -20.88,-20.78l0 -341.87 -103.8 0 0 349.46c0,46.73 30.38,100.52 105.69,100.52l55.06 0z"/>
  <path id="5" class="fil0" d="M2121.45 1931.67l0 -217.71c0,-36.07 -5.06,-68.36 -34.17,-97.46 -18.35,-18.36 -44.3,-29.11 -76.58,-29.11 -27.22,0 -58.23,10.76 -79.11,31.64l0 -27.85 -101.26 0 0 340.49 103.79 0 0 -203.79c0,-39.24 27.85,-46.83 41.77,-46.83 13.92,0 41.77,7.59 41.77,46.83l0 203.79 103.79 0z"/>
  <path id="6" class="fil0" d="M2478.41 1761.42c0,-66.45 -8.86,-99.36 -37.34,-130.37 -20.25,-21.52 -54.43,-43.67 -109.49,-43.67 -55.06,0 -89.24,22.15 -109.49,43.67 -28.48,31.01 -37.34,63.92 -37.34,130.37 0,67.08 8.86,99.36 37.34,130.37 20.25,21.52 54.43,43.67 109.49,43.67 55.06,0 89.24,-22.15 109.49,-43.67 28.48,-31.01 37.34,-63.29 37.34,-130.37zm-103.8 0c0,33.54 -1.9,57.59 -15.19,70.89 -6.33,6.33 -15.19,9.49 -27.85,9.49 -12.66,0 -21.52,-3.16 -27.85,-9.49 -13.29,-13.29 -15.19,-37.34 -15.19,-70.89 0,-33.54 1.9,-57.59 15.19,-70.89 6.33,-6.33 15.19,-9.49 27.85,-9.49 12.66,0 21.52,3.16 27.85,9.49 13.29,13.29 15.19,37.34 15.19,70.89z"/>
  <path id="7" class="fil0" d="M2710.04 1931.67l0 -87.34 -32.91 0c-13.92,0 -20.88,-7.59 -20.88,-20.88l0 -139.24 53.79 0 0 -79.74 -53.79 0 0 -97.47 -103.8 0 0 97.47 -31.01 0 0 79.74 31.01 0 0 146.83c0,46.84 30.38,100.63 105.69,100.63l51.89 0z"/>
  <path id="8" class="fil0" d="M3065.73 1591.17l-108.86 0 -55.06 176.57 -57.59 -176.57 -108.86 0 113.29 306.95 -9.49 28.48c-6.96,20.88 -16.45,25.31 -34.81,25.31l-22.15 0 0 93.67 39.24 0c30.38,0 56.32,-6.96 76.58,-28.48 10.76,-10.76 19.62,-25.32 26.58,-44.94l141.13 -381z"/>
  <polygon class="fil1" points="3483.11,1931.67 3324.25,1663.74 3478.05,1481.68 3342.61,1481.68 3212.23,1640.96 3212.23,1481.68 3102.74,1481.68 3102.74,1931.67 3212.23,1931.67 3212.23,1790.74 3250.21,1747.07 3354,1931.67 "/>
  <path id="1" class="fil1" d="M3785 1820.28c0,-54.43 -31.01,-96.83 -102.53,-103.8l-52.53 -5.06c-23.42,-2.53 -22.15,-15.19 -22.15,-18.99 0,-7.6 8.23,-19.62 33.54,-19.62 26.58,0 55.06,3.16 72.15,20.26l63.92 -63.93c-33.54,-33.54 -78.48,-41.77 -134.17,-41.77 -67.72,0 -135.43,37.34 -135.43,112.65 0,66.45 39.87,93.03 98.73,98.73l52.53 5.07c20.26,1.9 24.68,12.02 24.68,21.52 0,17.72 -29.11,22.15 -44.3,22.15 -17.72,0 -54.43,0 -82.91,-28.48l-67.09 67.08c46.83,46.83 96.84,49.36 148.1,49.36 79.11,0 147.47,-34.81 147.47,-115.18z"/>
  <path id="2" class="fil1" d="M3945.12 1931.67l0 -327.2 -103.79 0 0 327.2 103.79 0zm0 -375.3l0 -79.11 -103.79 0 0 79.11 103.79 0z"/>
  <path id="3" class="fil1" d="M4314.1 1794.96l0 -46.2c0,-89.24 -54.43,-161.38 -153.16,-161.38 -89.23,0 -152.52,62.66 -152.52,174.04 0,146.83 86.7,174.04 162.02,174.04 63.29,0 97.46,-18.99 132.28,-53.79l-62.02 -62.02c-18.36,18.35 -34.18,28.48 -70.25,28.48 -38.6,0 -60.13,-25.32 -60.13,-53.17l203.79 0zm-102.52 -68.98l-101.26 0c0,-8.23 1.27,-17.72 5.7,-26.58 6.33,-14.56 20.25,-26.58 44.93,-26.58 24.68,0 38.61,12.03 44.94,26.58 4.43,8.86 5.7,18.35 5.7,26.58z"/>
  <path id="4" class="fil1" d="M4653.96 1906.98l0 -315.81 -100.63 0 0 27.85c-20.88,-20.89 -41.14,-31.64 -75.95,-31.64 -32.91,0 -60.76,10.76 -80.38,30.38 -31.01,31.01 -31.64,68.98 -31.64,131.01 0,62.02 0.63,100 31.64,131.01 19.62,19.62 46.83,30.38 79.74,30.38 31.64,0 54.43,-9.5 73.42,-28.48l0 24.68c0,22.15 -11.39,51.9 -55.06,51.9 -23.41,0 -42.41,-5.7 -58.23,-21.52l-64.55 64.56c34.81,34.81 74.68,44.3 127.84,44.3 93.04,0 153.79,-58.22 153.79,-138.6zm-103.79 -158.22c0,34.81 -2.53,67.72 -40.51,67.72 -37.97,0 -40.51,-32.92 -40.51,-67.72 0,-34.81 2.54,-67.72 40.51,-67.72 37.98,0 40.51,32.91 40.51,67.72z"/>
  <path id="5" class="fil1" d="M5014.08 1761.42c0,-66.45 -8.86,-99.36 -37.34,-130.37 -20.25,-21.52 -54.43,-43.67 -109.49,-43.67 -55.06,0 -89.24,22.15 -109.49,43.67 -28.48,31.01 -37.34,63.92 -37.34,130.37 0,67.08 8.86,99.36 37.34,130.37 20.25,21.52 54.43,43.67 109.49,43.67 55.06,0 89.24,-22.15 109.49,-43.67 28.48,-31.01 37.34,-63.29 37.34,-130.37zm-103.8 0c0,33.54 -1.9,57.59 -15.19,70.89 -6.33,6.33 -15.19,9.49 -27.85,9.49 -12.66,0 -21.52,-3.16 -27.85,-9.49 -13.29,-13.29 -15.19,-37.34 -15.19,-70.89 0,-33.54 1.9,-57.59 15.19,-70.89 6.33,-6.33 15.19,-9.49 27.85,-9.49 12.66,0 21.52,3.16 27.85,9.49 13.29,13.29 15.19,37.34 15.19,70.89z"/>
  <polygon id="6" class="fil1" points="5529.88,1591.17 5420.39,1591.17 5377.99,1767.74 5319.13,1591.17 5246.98,1591.17 5188.12,1767.74 5145.72,1591.17 5036.23,1591.17 5138.76,1931.67 5221.67,1931.67 5283.06,1744.96 5344.45,1931.67 5427.35,1931.67 "/>
  <path id="7" class="fil1" d="M5845.7 1761.42c0,-66.45 -8.86,-99.36 -37.34,-130.37 -20.25,-21.52 -54.43,-43.67 -109.49,-43.67 -55.06,0 -89.24,22.15 -109.49,43.67 -28.48,31.01 -37.34,63.92 -37.34,130.37 0,67.08 8.86,99.36 37.34,130.37 20.25,21.52 54.43,43.67 109.49,43.67 55.06,0 89.24,-22.15 109.49,-43.67 28.48,-31.01 37.34,-63.29 37.34,-130.37zm-103.8 0c0,33.54 -1.9,57.59 -15.19,70.89 -6.33,6.33 -15.19,9.49 -27.85,9.49 -12.66,0 -21.52,-3.16 -27.85,-9.49 -13.29,-13.29 -15.19,-37.34 -15.19,-70.89 0,-33.54 1.9,-57.59 15.19,-70.89 6.33,-6.33 15.19,-9.49 27.85,-9.49 12.66,0 21.52,3.16 27.85,9.49 13.29,13.29 15.19,37.34 15.19,70.89z"/>
  <path id="8" class="fil1" d="M6174.8 1820.28c0,-54.43 -31.01,-96.83 -102.53,-103.8l-52.53 -5.06c-23.42,-2.53 -22.15,-15.19 -22.15,-18.99 0,-7.6 8.23,-19.62 33.54,-19.62 26.58,0 55.06,3.16 72.15,20.26l63.92 -63.93c-33.54,-33.54 -78.48,-41.77 -134.17,-41.77 -67.72,0 -135.43,37.34 -135.43,112.65 0,66.45 39.87,93.03 98.73,98.73l52.53 5.07c20.26,1.9 24.68,12.02 24.68,21.52 0,17.72 -29.11,22.15 -44.3,22.15 -17.72,0 -54.43,0 -82.91,-28.48l-67.09 67.08c46.83,46.83 96.84,49.36 148.1,49.36 79.11,0 147.47,-34.81 147.47,-115.18z"/>
  <path id="9" class="fil1" d="M6481.12 1891.79l-70.25 -70.25c-13.29,13.29 -24.68,20.25 -41.77,20.25 -13.92,0 -23.41,-4.43 -32.28,-13.29 -12.02,-12.66 -17.09,-34.81 -17.09,-67.08 0,-32.28 5.07,-54.43 17.09,-67.08 8.86,-8.86 18.36,-13.29 32.28,-13.29 17.09,0 28.48,6.96 41.77,20.25l70.25 -70.25c-27.85,-27.85 -64.55,-43.67 -112.03,-43.67 -58.85,0 -153.15,25.31 -153.15,174.04 0,148.73 94.3,174.04 153.15,174.04 47.47,0 84.18,-15.82 112.03,-43.67z"/>
  <g id="_2385368361680">
   <polygon class="fil0" points="6658.88,1931.67 6658.88,1817.75 6544.96,1817.75 6544.96,1931.67 "/>
   <path class="fil0" d="M7027.86 1761.42c0,-50 1.9,-109.49 -31.64,-143.03 -19.62,-19.62 -50,-31.01 -82.91,-31.01 -35.44,0 -57.59,10.76 -78.48,31.64l0 -27.85 -100.63 0 0 450.62 103.79 0 0 -134.81c18.99,18.99 42.41,28.48 75.95,28.48 32.91,0 62.66,-11.39 82.28,-31.01 33.54,-33.54 31.64,-93.03 31.64,-143.03zm-103.8 0c0,49.36 -4.43,80.38 -43.04,80.38 -38.6,0 -43.04,-31.01 -43.04,-80.38 0,-49.36 4.43,-80.38 43.04,-80.38 38.61,0 43.04,31.01 43.04,80.38z"/>
   <path class="fil0" d="M7251.9 1931.67l0 -87.34 -36.08 0c-13.92,0 -20.88,-7.48 -20.88,-20.78l0 -341.87 -103.8 0 0 349.46c0,46.73 30.38,100.52 105.69,100.52l55.06 0z"/>
  </g>
  <g id="_2385368364880">
   <path class="fil2 str0" d="M4272.48 308.86c0,-74.2 -13.56,-134.47 -40.68,-181.17 -47.08,-81.36 -134.47,-122.04 -262.54,-122.04l-727.72 0c-128.44,0 -215.83,40.68 -262.53,122.04 -20.72,35.41 -33.15,78.72 -38.04,129.57 -1.89,16.19 -2.64,33.53 -2.64,51.6l0 727.72c0,18.08 0.75,35.41 2.64,51.98 0.75,7.91 1.88,15.44 3.01,23.35 15.44,100.57 64.03,167.99 146.14,201.89 41.81,17.33 92.28,26 151.43,26l727.71 0c175.15,0 274.59,-76.09 297.94,-227.89 3.39,-23.35 5.28,-48.59 5.28,-75.33l0 -727.72z"/>
   <path class="fil3" d="M4155.14 1123.17c6.56,-22.41 10.04,-48.29 10.04,-77.26l0 -746.37c0,-117.05 -55.24,-179.25 -165.73,-185.82 -6.57,-0.39 -13.52,-0.77 -20.86,-0.77l-746.37 0c-7.34,0 -14.3,0.38 -20.86,0.77 -110.49,6.57 -165.73,68.77 -165.73,185.82l0 746.37c0,28.97 3.47,54.85 10.43,77.26 22.02,73.02 80.74,109.33 176.16,109.33l746.37 0c95.41,0 154.14,-36.32 176.55,-109.33z"/>
  </g>
  <g id="_2385368364592">
   <polygon class="fil4" points="3790.86,1113.34 3790.86,232.11 4015.21,232.11 4015.21,1000.37 "/>
   <polygon class="fil4" points="3493.22,1113.34 3493.22,525.29 3717.58,525.29 3717.58,1000.37 "/>
   <polygon class="fil4" points="3195.6,1113.34 3195.6,819.65 3419.95,819.65 3419.95,1000.37 "/>
  </g>
 </g>
</svg>
