<?xml version="1.0" encoding="UTF-8"?>
<!DOCTYPE svg PUBLIC "-//W3C//DTD SVG 1.1//EN" "http://www.w3.org/Graphics/SVG/1.1/DTD/svg11.dtd">
<!-- Creator: CorelDRAW 2019 (64-Bit) -->
<svg xmlns="http://www.w3.org/2000/svg" xml:space="preserve" width="120.727mm" height="23.8186mm" version="1.1" style="shape-rendering:geometricPrecision; text-rendering:geometricPrecision; image-rendering:optimizeQuality; fill-rule:evenodd; clip-rule:evenodd"
viewBox="0 0 6878.42 1357.06"
 xmlns:xlink="http://www.w3.org/1999/xlink"
 xmlns:xodm="http://www.corel.com/coreldraw/odm/2003">
 <defs>
  <style type="text/css">
   <![CDATA[
    .str0 {stroke:black;stroke-width:11.39;stroke-miterlimit:22.9256}
    .fil4 {fill:#FEFEFE}
    .fil2 {fill:black;fill-rule:nonzero}
    .fil0 {fill:white;fill-rule:nonzero}
    .fil1 {fill:url(#id0);fill-rule:nonzero}
    .fil3 {fill:url(#id1);fill-rule:nonzero}
   ]]>
  </style>
  <linearGradient id="id0" gradientUnits="userSpaceOnUse" x1="678.53" y1="113.92" x2="678.53" y2="1243.14">
   <stop offset="0" style="stop-opacity:1; stop-color:#DA4A00"/>
   <stop offset="0.321569" style="stop-opacity:1; stop-color:#CA2500"/>
   <stop offset="1" style="stop-opacity:1; stop-color:#BA0000"/>
  </linearGradient>
  <linearGradient id="id1" gradientUnits="objectBoundingBox" xlink:href="#id0" x1="42.944%" y1="25.8216%" x2="42.944%" y2="81.9244%">
  </linearGradient>
 </defs>
 <g id="Warstwa_x0020_1">
  <metadata id="CorelCorpID_0Corel-Layer"/>
  <g id="_2428425607760">
   <path class="fil0 str0" d="M1351.36 311.53c0,-74.84 -13.68,-135.63 -41.03,-182.74 -47.49,-82.06 -135.63,-123.09 -264.8,-123.09l-734 0c-129.55,0 -217.69,41.03 -264.8,123.09 -20.9,35.71 -33.44,79.4 -38.37,130.69 -1.9,16.33 -2.66,33.81 -2.66,52.05l0 734c0,18.23 0.76,35.71 2.66,52.43 0.76,7.98 1.9,15.58 3.04,23.55 15.58,101.44 64.59,169.44 147.41,203.63 42.17,17.48 93.08,26.22 152.73,26.22l733.99 0c176.66,0 276.96,-76.75 300.51,-229.85 3.42,-23.55 5.32,-49.01 5.32,-75.98l0 -734z"/>
   <path class="fil1" d="M1233.01 1132.86c6.62,-22.6 10.13,-48.7 10.13,-77.92l0 -752.81c0,-118.06 -55.72,-180.8 -167.16,-187.42 -6.63,-0.39 -13.64,-0.78 -21.04,-0.78l-752.81 0c-7.41,0 -14.42,0.39 -21.04,0.78 -111.44,6.63 -167.16,69.36 -167.16,187.42l0 752.81c0,29.22 3.5,55.32 10.52,77.92 22.21,73.65 81.43,110.27 177.68,110.27l752.81 0c96.24,0 155.47,-36.63 178.07,-110.27z"/>
  </g>
  <polygon class="fil2" points="1876.76,945.04 1876.76,845.46 1701.85,845.46 1876.76,577.99 1876.76,491.18 1576.1,491.18 1576.1,590.76 1742.7,590.76 1568.43,858.22 1568.43,945.04 "/>
  <path id="1" class="fil2" d="M2229.13 945.04l0 -219.59c0,-36.38 -5.1,-68.95 -34.47,-98.3 -18.51,-18.52 -44.69,-29.36 -77.24,-29.36 -27.45,0 -58.73,10.85 -79.79,31.92l0 -28.09 -102.13 0 0 343.43 104.69 0 0 -205.55c0,-39.58 28.09,-47.24 42.13,-47.24 14.04,0 42.13,7.66 42.13,47.24l0 205.55 104.69 0z"/>
  <path id="2" class="fil2" d="M2573.84 945.04l0 -222.78c0,-83.63 -52.99,-124.48 -151.29,-124.48 -58.09,0 -90.01,10.85 -125.12,45.96l65.11 65.11c16.6,-16.6 28.09,-22.98 54.9,-22.98 36.38,0 51.7,11.49 51.7,42.77l0 8.94 -69.58 0c-81.71,0 -116.82,47.88 -116.82,99.58 0,31.92 10.22,60.64 30,80.43 19.15,19.15 47.88,30.64 82.35,30.64 36.39,0 55.54,-10.21 76.6,-31.28l0 28.09 102.14 0zm-104.69 -128.95c0,16.6 -2.55,27.44 -10.22,34.47 -11.49,10.85 -21.06,12.77 -41.49,12.77 -22.98,0 -34.47,-13.41 -34.47,-28.73 0,-15.96 12.76,-27.45 33.19,-27.45l52.98 0 0 8.94z"/>
  <path id="3" class="fil2" d="M2751.94 958.45l0 -343.43 -104.69 0 0 335.77c0,13.41 -7.03,21.07 -21.07,21.07l-36.38 0 0 88.09 55.53 0c75.96,0 106.61,-54.26 106.61,-101.5zm0 -391.95l0 -79.79 -104.69 0 0 79.79 104.69 0z"/>
  <path id="4" class="fil2" d="M3115.17 945.04l0 -453.87 -104.69 0 0 135.33c-19.15,-19.15 -42.77,-28.73 -76.6,-28.73 -33.19,0 -63.2,11.49 -82.98,31.28 -33.83,33.83 -31.92,93.84 -31.92,144.27 0,50.43 -1.91,110.43 31.92,144.27 19.79,19.79 50.43,31.28 83.62,31.28 35.75,0 58.09,-10.85 79.16,-31.92l0 28.09 101.5 0zm-104.69 -171.72c0,49.79 -4.47,81.07 -43.41,81.07 -38.94,0 -43.41,-31.28 -43.41,-81.07 0,-49.79 4.47,-81.07 43.41,-81.07 38.94,0 43.41,31.28 43.41,81.07z"/>
  <polygon id="5" class="fil2" points="3441.36,945.04 3441.36,850.57 3307.95,850.57 3441.36,678.85 3441.36,601.61 3181.55,601.61 3181.55,696.09 3304.76,696.09 3173.89,867.8 3173.89,945.04 "/>
  <polygon class="fil3" points="3825.83,945.04 3825.83,845.46 3650.92,845.46 3825.83,577.99 3825.83,491.18 3525.16,491.18 3525.16,590.76 3691.77,590.76 3517.5,858.22 3517.5,945.04 "/>
  <path id="1" class="fil3" d="M4153.3 945.04l0 -222.78c0,-83.63 -52.99,-124.48 -151.29,-124.48 -58.09,0 -90.01,10.85 -125.12,45.96l65.11 65.11c16.6,-16.6 28.09,-22.98 54.9,-22.98 36.38,0 51.7,11.49 51.7,42.77l0 8.94 -69.58 0c-81.71,0 -116.82,47.88 -116.82,99.58 0,31.92 10.22,60.64 30,80.43 19.15,19.15 47.88,30.64 82.35,30.64 36.39,0 55.54,-10.21 76.6,-31.28l0 28.09 102.14 0zm-104.69 -128.95c0,16.6 -2.55,27.44 -10.22,34.47 -11.49,10.85 -21.06,12.77 -41.49,12.77 -22.98,0 -34.47,-13.41 -34.47,-28.73 0,-15.96 12.76,-27.45 33.19,-27.45l52.98 0 0 8.94z"/>
  <path id="2" class="fil3" d="M4490.35 629.7c-23.62,-23.62 -46.6,-31.92 -80.43,-31.92 -35.75,0 -65.75,16.6 -81.07,31.92l0 -28.09 -102.13 0 0 343.43 104.69 0 0 -205.55c0,-38.94 28.09,-47.24 42.13,-47.24 17.87,0 27.45,7.66 37.66,17.87l79.16 -80.43z"/>
  <polygon id="3" class="fil3" points="4776.96,945.04 4776.96,850.57 4643.55,850.57 4776.96,678.85 4776.96,601.61 4517.16,601.61 4517.16,696.09 4640.36,696.09 4509.5,867.8 4509.5,945.04 "/>
  <path id="4" class="fil3" d="M5110.83 945.04l0 -222.78c0,-83.63 -52.99,-124.48 -151.29,-124.48 -58.09,0 -90.01,10.85 -125.12,45.96l65.11 65.11c16.6,-16.6 28.09,-22.98 54.9,-22.98 36.38,0 51.7,11.49 51.7,42.77l0 8.94 -69.58 0c-81.71,0 -116.82,47.88 -116.82,99.58 0,31.92 10.22,60.64 30,80.43 19.15,19.15 47.88,30.64 82.35,30.64 36.39,0 55.54,-10.21 76.6,-31.28l0 28.09 102.14 0zm-104.69 -128.95c0,16.6 -2.55,27.44 -10.22,34.47 -11.49,10.85 -21.06,12.77 -41.49,12.77 -22.98,0 -34.47,-13.41 -34.47,-28.73 0,-15.96 12.76,-27.45 33.19,-27.45l52.98 0 0 8.94z"/>
  <path id="5" class="fil3" d="M5468.3 945.04l0 -453.87 -104.69 0 0 135.33c-19.15,-19.15 -42.77,-28.73 -76.6,-28.73 -33.19,0 -63.2,11.49 -82.98,31.28 -33.83,33.83 -31.92,93.84 -31.92,144.27 0,50.43 -1.91,110.43 31.92,144.27 19.79,19.79 50.43,31.28 83.62,31.28 35.75,0 58.09,-10.85 79.16,-31.92l0 28.09 101.5 0zm-104.69 -171.72c0,49.79 -4.47,81.07 -43.41,81.07 -38.94,0 -43.41,-31.28 -43.41,-81.07 0,-49.79 4.47,-81.07 43.41,-81.07 38.94,0 43.41,31.28 43.41,81.07z"/>
  <path id="6" class="fil3" d="M5799.61 904.82l-70.86 -70.85c-13.41,13.41 -24.89,20.43 -42.13,20.43 -14.04,0 -23.62,-4.47 -32.56,-13.41 -12.12,-12.77 -17.23,-35.11 -17.23,-67.66 0,-32.56 5.11,-54.9 17.23,-67.66 8.94,-8.94 18.52,-13.41 32.56,-13.41 17.24,0 28.73,7.02 42.13,20.43l70.86 -70.85c-28.09,-28.09 -65.11,-44.05 -112.99,-44.05 -59.36,0 -154.48,25.53 -154.48,175.55 0,150.01 95.11,175.55 154.48,175.55 47.88,0 84.9,-15.96 112.99,-44.05z"/>
  <path id="7" class="fil3" d="M6132.19 807.16l0 -46.6c0,-90.01 -54.9,-162.78 -154.48,-162.78 -90,0 -153.84,63.2 -153.84,175.55 0,148.09 87.45,175.55 163.42,175.55 63.83,0 98.3,-19.15 133.42,-54.26l-62.56 -62.56c-18.52,18.51 -34.48,28.73 -70.86,28.73 -38.94,0 -60.64,-25.54 -60.64,-53.62l205.55 0zm-103.41 -69.58l-102.14 0c0,-8.3 1.28,-17.87 5.75,-26.81 6.38,-14.68 20.43,-26.81 45.32,-26.81 24.9,0 38.94,12.13 45.32,26.81 4.47,8.94 5.75,18.51 5.75,26.81z"/>
  <g id="_2428425624688">
   <polygon class="fil2" points="6280.28,945.04 6280.28,830.14 6165.37,830.14 6165.37,945.04 "/>
   <path class="fil2" d="M6652.44 773.33c0,-50.43 1.91,-110.43 -31.92,-144.27 -19.79,-19.79 -50.43,-31.28 -83.63,-31.28 -35.75,0 -58.09,10.85 -79.16,31.92l0 -28.09 -101.5 0 0 454.51 104.69 0 0 -135.97c19.15,19.15 42.77,28.73 76.6,28.73 33.19,0 63.2,-11.49 82.99,-31.28 33.83,-33.83 31.92,-93.84 31.92,-144.27zm-104.69 0c0,49.79 -4.47,81.07 -43.41,81.07 -38.94,0 -43.41,-31.28 -43.41,-81.07 0,-49.79 4.47,-81.07 43.41,-81.07 38.94,0 43.41,31.28 43.41,81.07z"/>
   <path class="fil2" d="M6878.42 945.04l0 -88.09 -36.39 0c-14.04,0 -21.06,-7.55 -21.06,-20.96l0 -344.82 -104.69 0 0 352.48c0,47.14 30.64,101.39 106.61,101.39l55.54 0z"/>
  </g>
  <g id="_2428425629520">
   <path class="fil4" d="M678.53 250.93c181.81,0 329.21,147.39 329.21,329.21 0,181.81 -147.39,329.21 -329.21,329.21 -181.81,0 -329.21,-147.39 -329.21,-329.21 0,-181.81 147.39,-329.21 329.21,-329.21zm0 236.35c51.28,0 92.86,41.57 92.86,92.86 0,51.28 -41.57,92.86 -92.86,92.86 -51.28,0 -92.86,-41.57 -92.86,-92.86 0,-51.28 41.57,-92.86 92.86,-92.86z"/>
   <polygon class="fil4" points="678.53,1106.13 600.77,1022.85 523.01,939.57 678.53,939.57 834.05,939.57 756.29,1022.85 "/>
  </g>
 </g>
</svg>
