<?xml version="1.0" encoding="UTF-8"?>
<!DOCTYPE svg PUBLIC "-//W3C//DTD SVG 1.1//EN" "http://www.w3.org/Graphics/SVG/1.1/DTD/svg11.dtd">
<!-- Creator: CorelDRAW 2019 (64-Bit) -->
<svg xmlns="http://www.w3.org/2000/svg" xml:space="preserve" width="23.6185mm" height="23.6186mm" version="1.1" style="shape-rendering:geometricPrecision; text-rendering:geometricPrecision; image-rendering:optimizeQuality; fill-rule:evenodd; clip-rule:evenodd"
viewBox="0 0 262.65 262.65"
 xmlns:xlink="http://www.w3.org/1999/xlink"
 xmlns:xodm="http://www.corel.com/coreldraw/odm/2003">
 <defs>
  <style type="text/css">
   <![CDATA[
    .fil0 {fill:rgb(10, 69,79)}
    .fil1 {fill:white}
   ]]>
  </style>
 </defs>
 <g id="Warstwa_x0020_1">
  <metadata id="CorelCorpID_0Corel-Layer"/>
  <g id="_2384084395392">
   <path class="fil0" d="M262.65 59.69c0,-14.61 -2.67,-26.47 -8.01,-35.67 -9.27,-16.02 -26.47,-24.03 -51.68,-24.03l-143.26 0c-25.29,0 -42.49,8.01 -51.68,24.03 -4.08,6.97 -6.53,15.5 -7.49,25.51 -0.37,3.19 -0.52,6.6 -0.52,10.16l0 143.26c0,3.56 0.15,6.97 0.52,10.23 0.15,1.56 0.37,3.04 0.59,4.6 3.04,19.8 12.61,33.07 28.77,39.75 8.23,3.41 18.17,5.12 29.81,5.12l143.26 0c34.48,0 54.06,-14.98 58.65,-44.86 0.67,-4.6 1.04,-9.57 1.04,-14.83l0 -143.26z"/>
   <path class="fil1" d="M239.55 220c1.29,-4.41 1.98,-9.51 1.98,-15.21l0 -146.93c0,-23.04 -10.88,-35.29 -32.63,-36.58 -1.29,-0.08 -2.66,-0.15 -4.11,-0.15l-146.93 0c-1.45,0 -2.81,0.08 -4.11,0.15 -21.75,1.29 -32.63,13.54 -32.63,36.58l0 146.93c0,5.7 0.68,10.8 2.05,15.21 4.33,14.37 15.89,21.52 34.68,21.52l146.93 0c18.78,0 30.34,-7.15 34.76,-21.52z"/>
  </g>
  <g id="_2384084394880">
   <path class="fil0" d="M131.32 47.86c35.49,0 64.26,28.77 64.26,64.26 0,35.49 -28.77,64.26 -64.26,64.26 -35.49,0 -64.26,-28.77 -64.26,-64.26 0,-35.49 28.77,-64.26 64.26,-64.26zm0 46.13c10.01,0 18.12,8.11 18.12,18.12 0,10.01 -8.11,18.12 -18.12,18.12 -10.01,0 -18.12,-8.11 -18.12,-18.12 0,-10.01 8.11,-18.12 18.12,-18.12z"/>
   <polygon class="fil0" points="131.32,214.79 116.15,198.53 100.97,182.28 131.32,182.28 161.68,182.28 146.5,198.53 "/>
  </g>
 </g>
</svg>
