<?xml version="1.0" encoding="UTF-8"?>
<!DOCTYPE svg PUBLIC "-//W3C//DTD SVG 1.1//EN" "http://www.w3.org/Graphics/SVG/1.1/DTD/svg11.dtd">
<!-- Creator: CorelDRAW 2019 (64-Bit) -->
<svg xmlns="http://www.w3.org/2000/svg" xml:space="preserve" width="23.8185mm" height="23.8186mm" version="1.1" style="shape-rendering:geometricPrecision; text-rendering:geometricPrecision; image-rendering:optimizeQuality; fill-rule:evenodd; clip-rule:evenodd"
viewBox="0 0 257.82 257.82"
 xmlns:xlink="http://www.w3.org/1999/xlink"
 xmlns:xodm="http://www.corel.com/coreldraw/odm/2003">
 <defs>
  <style type="text/css">
   <![CDATA[
    .str0 {stroke:black;stroke-width:2.16;stroke-miterlimit:22.9256}
    .fil2 {fill:#FEFEFE}
    .fil0 {fill:white;fill-rule:nonzero}
    .fil1 {fill:url(#id0);fill-rule:nonzero}
   ]]>
  </style>
  <linearGradient id="id0" gradientUnits="userSpaceOnUse" x1="128.91" y1="21.64" x2="128.91" y2="236.18">
   <stop offset="0" style="stop-opacity:1; stop-color:#DA4A00"/>
   <stop offset="0.321569" style="stop-opacity:1; stop-color:#CA2500"/>
   <stop offset="1" style="stop-opacity:1; stop-color:#BA0000"/>
  </linearGradient>
 </defs>
 <g id="Warstwa_x0020_1">
  <metadata id="CorelCorpID_0Corel-Layer"/>
  <g id="_2121608749360">
   <path class="fil0 str0" d="M256.74 59.19c0,-14.22 -2.6,-25.77 -7.8,-34.72 -9.02,-15.59 -25.77,-23.39 -50.31,-23.39l-139.45 0c-24.61,0 -41.36,7.8 -50.31,23.39 -3.97,6.78 -6.35,15.08 -7.29,24.83 -0.36,3.1 -0.51,6.42 -0.51,9.89l0 139.45c0,3.46 0.14,6.78 0.51,9.96 0.14,1.52 0.36,2.96 0.58,4.47 2.96,19.27 12.27,32.19 28.01,38.69 8.01,3.32 17.68,4.98 29.02,4.98l139.45 0c33.56,0 52.62,-14.58 57.09,-43.67 0.65,-4.47 1.01,-9.31 1.01,-14.44l0 -139.45z"/>
   <path class="fil1" d="M234.25 215.23c1.26,-4.29 1.92,-9.25 1.92,-14.8l0 -143.02c0,-22.43 -10.59,-34.35 -31.76,-35.61 -1.26,-0.07 -2.59,-0.15 -4,-0.15l-143.02 0c-1.41,0 -2.74,0.07 -4,0.15 -21.17,1.26 -31.76,13.18 -31.76,35.61l0 143.02c0,5.55 0.67,10.51 2,14.8 4.22,13.99 15.47,20.95 33.76,20.95l143.02 0c18.28,0 29.54,-6.96 33.83,-20.95z"/>
  </g>
  <g id="_2121608750800">
   <path class="fil2" d="M128.91 47.67c34.54,0 62.54,28 62.54,62.54 0,34.54 -28,62.54 -62.54,62.54 -34.54,0 -62.54,-28 -62.54,-62.54 0,-34.54 28,-62.54 62.54,-62.54zm0 44.9c9.74,0 17.64,7.9 17.64,17.64 0,9.74 -7.9,17.64 -17.64,17.64 -9.74,0 -17.64,-7.9 -17.64,-17.64 0,-9.74 7.9,-17.64 17.64,-17.64z"/>
   <polygon class="fil2" points="128.91,210.15 114.14,194.33 99.37,178.51 128.91,178.51 158.46,178.51 143.68,194.33 "/>
  </g>
 </g>
</svg>
