<?xml version="1.0" encoding="UTF-8"?>
<!DOCTYPE svg PUBLIC "-//W3C//DTD SVG 1.1//EN" "http://www.w3.org/Graphics/SVG/1.1/DTD/svg11.dtd">
<!-- Creator: CorelDRAW 2019 (64-Bit) -->
<svg xmlns="http://www.w3.org/2000/svg" xml:space="preserve" width="93.6342mm" height="35.4659mm" version="1.1" style="shape-rendering:geometricPrecision; text-rendering:geometricPrecision; image-rendering:optimizeQuality; fill-rule:evenodd; clip-rule:evenodd"
viewBox="0 0 4429.34 1677.71"
 xmlns:xlink="http://www.w3.org/1999/xlink"
 xmlns:xodm="http://www.corel.com/coreldraw/odm/2003">
 <defs>
  <style type="text/css">
   <![CDATA[
    .str0 {stroke:black;stroke-width:9.46;stroke-miterlimit:22.9256}
    .fil4 {fill:#FEFEFE}
    .fil0 {fill:black;fill-rule:nonzero}
    .fil2 {fill:white;fill-rule:nonzero}
    .fil3 {fill:url(#id0);fill-rule:nonzero}
    .fil1 {fill:url(#id1);fill-rule:nonzero}
   ]]>
  </style>
  <linearGradient id="id0" gradientUnits="userSpaceOnUse" x1="2210.75" y1="94.59" x2="2210.75" y2="1032.14">
   <stop offset="0" style="stop-opacity:1; stop-color:#DA4A00"/>
   <stop offset="0.321569" style="stop-opacity:1; stop-color:#CA2500"/>
   <stop offset="1" style="stop-opacity:1; stop-color:#BA0000"/>
  </linearGradient>
  <linearGradient id="id1" gradientUnits="objectBoundingBox" xlink:href="#id0" x1="42.944%" y1="25.8216%" x2="42.944%" y2="81.9244%">
  </linearGradient>
 </defs>
 <g id="Warstwa_x0020_1">
  <metadata id="CorelCorpID_0Corel-Layer"/>
  <polygon class="fil0" points="255.99,1582.31 255.99,1499.63 110.77,1499.63 255.99,1277.55 255.99,1205.47 6.36,1205.47 6.36,1288.15 144.69,1288.15 -0,1510.22 -0,1582.31 "/>
  <path id="1" class="fil0" d="M548.56 1582.31l0 -182.32c0,-30.21 -4.24,-57.24 -28.62,-81.62 -15.37,-15.37 -37.1,-24.38 -64.13,-24.38 -22.79,0 -48.76,9.01 -66.25,26.5l0 -23.32 -84.8 0 0 285.14 86.92 0 0 -170.66c0,-32.86 23.32,-39.22 34.98,-39.22 11.66,0 34.98,6.36 34.98,39.22l0 170.66 86.92 0z"/>
  <path id="2" class="fil0" d="M834.76 1582.31l0 -184.97c0,-69.43 -43.99,-103.35 -125.61,-103.35 -48.23,0 -74.73,9.01 -103.88,38.16l54.06 54.06c13.78,-13.78 23.32,-19.08 45.58,-19.08 30.21,0 42.93,9.54 42.93,35.51l0 7.42 -57.77 0c-67.84,0 -96.99,39.75 -96.99,82.68 0,26.5 8.48,50.35 24.91,66.78 15.9,15.9 39.75,25.44 68.37,25.44 30.21,0 46.11,-8.48 63.6,-25.97l0 23.32 84.8 0zm-86.92 -107.06c0,13.78 -2.12,22.79 -8.48,28.62 -9.54,9.01 -17.49,10.6 -34.45,10.6 -19.08,0 -28.62,-11.13 -28.62,-23.85 0,-13.25 10.6,-22.79 27.56,-22.79l43.99 0 0 7.42z"/>
  <path id="3" class="fil0" d="M982.63 1593.44l0 -285.14 -86.92 0 0 278.78c0,11.13 -5.83,17.49 -17.49,17.49l-30.21 0 0 73.14 46.11 0c63.07,0 88.51,-45.05 88.51,-84.27zm0 -325.42l0 -66.25 -86.92 0 0 66.25 86.92 0z"/>
  <path id="4" class="fil0" d="M1284.21 1582.31l0 -376.83 -86.92 0 0 112.36c-15.9,-15.9 -35.51,-23.85 -63.6,-23.85 -27.56,0 -52.47,9.54 -68.9,25.97 -28.09,28.09 -26.5,77.91 -26.5,119.78 0,41.87 -1.59,91.69 26.5,119.78 16.43,16.43 41.87,25.97 69.43,25.97 29.68,0 48.23,-9.01 65.72,-26.5l0 23.32 84.27 0zm-86.92 -142.57c0,41.34 -3.71,67.31 -36.04,67.31 -32.33,0 -36.04,-25.97 -36.04,-67.31 0,-41.34 3.71,-67.31 36.04,-67.31 32.33,0 36.04,25.97 36.04,67.31z"/>
  <polygon id="5" class="fil0" points="1555.04,1582.31 1555.04,1503.87 1444.27,1503.87 1555.04,1361.29 1555.04,1297.16 1339.33,1297.16 1339.33,1375.6 1441.62,1375.6 1332.97,1518.18 1332.97,1582.31 "/>
  <polygon class="fil1" points="1894.86,1583 1894.86,1500.32 1749.64,1500.32 1894.86,1278.25 1894.86,1206.17 1645.23,1206.17 1645.23,1288.85 1783.56,1288.85 1638.86,1510.92 1638.86,1583 "/>
  <path id="1" class="fil1" d="M2166.75 1583l0 -184.97c0,-69.43 -43.99,-103.35 -125.61,-103.35 -48.23,0 -74.73,9.01 -103.88,38.16l54.06 54.06c13.78,-13.78 23.32,-19.08 45.58,-19.08 30.21,0 42.93,9.54 42.93,35.51l0 7.42 -57.77 0c-67.84,0 -96.99,39.75 -96.99,82.68 0,26.5 8.48,50.35 24.91,66.78 15.9,15.9 39.75,25.44 68.37,25.44 30.21,0 46.11,-8.48 63.6,-25.97l0 23.32 84.8 0zm-86.92 -107.06c0,13.78 -2.12,22.79 -8.48,28.62 -9.54,9.01 -17.49,10.6 -34.45,10.6 -19.08,0 -28.62,-11.13 -28.62,-23.85 0,-13.25 10.6,-22.79 27.56,-22.79l43.99 0 0 7.42z"/>
  <path id="2" class="fil1" d="M2446.59 1321.18c-19.61,-19.61 -38.69,-26.5 -66.78,-26.5 -29.68,0 -54.59,13.78 -67.31,26.5l0 -23.32 -84.8 0 0 285.14 86.92 0 0 -170.66c0,-32.33 23.32,-39.22 34.98,-39.22 14.84,0 22.79,6.36 31.27,14.84l65.72 -66.78z"/>
  <polygon id="3" class="fil1" points="2684.56,1583 2684.56,1504.56 2573.8,1504.56 2684.56,1361.99 2684.56,1297.86 2468.85,1297.86 2468.85,1376.3 2571.15,1376.3 2462.49,1518.87 2462.49,1583 "/>
  <path id="4" class="fil1" d="M2961.76 1583l0 -184.97c0,-69.43 -43.99,-103.35 -125.61,-103.35 -48.23,0 -74.73,9.01 -103.88,38.16l54.06 54.06c13.78,-13.78 23.32,-19.08 45.58,-19.08 30.21,0 42.93,9.54 42.93,35.51l0 7.42 -57.77 0c-67.84,0 -96.99,39.75 -96.99,82.68 0,26.5 8.48,50.35 24.91,66.78 15.9,15.9 39.75,25.44 68.37,25.44 30.21,0 46.11,-8.48 63.6,-25.97l0 23.32 84.8 0zm-86.92 -107.06c0,13.78 -2.12,22.79 -8.48,28.62 -9.54,9.01 -17.49,10.6 -34.45,10.6 -19.08,0 -28.62,-11.13 -28.62,-23.85 0,-13.25 10.6,-22.79 27.56,-22.79l43.99 0 0 7.42z"/>
  <path id="5" class="fil1" d="M3258.57 1583l0 -376.83 -86.92 0 0 112.36c-15.9,-15.9 -35.51,-23.85 -63.6,-23.85 -27.56,0 -52.47,9.54 -68.9,25.97 -28.09,28.09 -26.5,77.91 -26.5,119.78 0,41.87 -1.59,91.69 26.5,119.78 16.43,16.43 41.87,25.97 69.43,25.97 29.68,0 48.23,-9.01 65.72,-26.5l0 23.32 84.27 0zm-86.92 -142.57c0,41.34 -3.71,67.31 -36.04,67.31 -32.33,0 -36.04,-25.97 -36.04,-67.31 0,-41.34 3.71,-67.31 36.04,-67.31 32.33,0 36.04,25.97 36.04,67.31z"/>
  <path id="6" class="fil1" d="M3533.64 1549.61l-58.83 -58.83c-11.13,11.13 -20.67,16.96 -34.98,16.96 -11.66,0 -19.61,-3.71 -27.03,-11.13 -10.07,-10.6 -14.31,-29.15 -14.31,-56.18 0,-27.03 4.24,-45.58 14.31,-56.18 7.42,-7.42 15.37,-11.13 27.03,-11.13 14.31,0 23.85,5.83 34.98,16.96l58.83 -58.83c-23.32,-23.32 -54.06,-36.57 -93.81,-36.57 -49.29,0 -128.26,21.2 -128.26,145.75 0,124.55 78.97,145.75 128.26,145.75 39.75,0 70.49,-13.25 93.81,-36.57z"/>
  <path id="7" class="fil1" d="M3809.77 1468.52l0 -38.69c0,-74.73 -45.58,-135.15 -128.26,-135.15 -74.73,0 -127.73,52.47 -127.73,145.75 0,122.96 72.61,145.75 135.68,145.75 53,0 81.62,-15.9 110.77,-45.05l-51.94 -51.94c-15.37,15.37 -28.62,23.85 -58.83,23.85 -32.33,0 -50.35,-21.2 -50.35,-44.52l170.66 0zm-85.86 -57.77l-84.8 0c0,-6.89 1.06,-14.84 4.77,-22.26 5.3,-12.19 16.96,-22.26 37.63,-22.26 20.67,0 32.33,10.07 37.63,22.26 3.71,7.42 4.77,15.37 4.77,22.26z"/>
  <g id="_2420399520336">
   <polygon class="fil0" points="3932.73,1583 3932.73,1487.6 3837.32,1487.6 3837.32,1583 "/>
   <path class="fil0" d="M4241.72 1440.43c0,-41.87 1.59,-91.69 -26.5,-119.78 -16.43,-16.43 -41.87,-25.97 -69.43,-25.97 -29.68,0 -48.23,9.01 -65.72,26.5l0 -23.32 -84.27 0 0 377.36 86.92 0 0 -112.89c15.9,15.9 35.51,23.85 63.6,23.85 27.56,0 52.47,-9.54 68.9,-25.97 28.09,-28.09 26.5,-77.91 26.5,-119.78zm-86.92 0c0,41.34 -3.71,67.31 -36.04,67.31 -32.33,0 -36.04,-25.97 -36.04,-67.31 0,-41.34 3.71,-67.31 36.04,-67.31 32.33,0 36.04,25.97 36.04,67.31z"/>
   <path class="fil0" d="M4429.34 1583l0 -73.14 -30.21 0c-11.66,0 -17.49,-6.27 -17.49,-17.4l0 -286.29 -86.92 0 0 292.65c0,39.14 25.44,84.18 88.51,84.18l46.11 0z"/>
  </g>
  <g id="_2420399525328">
   <path class="fil2 str0" d="M2769.38 258.65c0,-62.14 -11.36,-112.61 -34.07,-151.72 -39.43,-68.13 -112.61,-102.2 -219.86,-102.2l-609.42 0c-107.56,0 -180.74,34.07 -219.85,102.2 -17.35,29.65 -27.76,65.92 -31.86,108.51 -1.58,13.56 -2.21,28.08 -2.21,43.21l0 609.42c0,15.14 0.63,29.65 2.21,43.53 0.63,6.62 1.58,12.93 2.52,19.56 12.93,84.22 53.62,140.68 122.39,169.07 35.01,14.51 77.28,21.77 126.81,21.77l609.41 0c146.68,0 229.95,-63.72 249.51,-190.84 2.84,-19.56 4.42,-40.69 4.42,-63.09l0 -609.42z"/>
   <path class="fil3" d="M2671.11 940.58c5.5,-18.77 8.41,-40.44 8.41,-64.7l0 -625.04c0,-98.02 -46.26,-150.11 -138.79,-155.61 -5.5,-0.33 -11.32,-0.65 -17.46,-0.65l-625.04 0c-6.15,0 -11.97,0.32 -17.47,0.65 -92.53,5.5 -138.79,57.59 -138.79,155.61l0 625.04c0,24.26 2.91,45.93 8.74,64.7 18.44,61.15 67.61,91.56 147.52,91.56l625.04 0c79.9,0 129.08,-30.41 147.85,-91.56z"/>
  </g>
  <g id="_2420399526224">
   <path class="fil4" d="M2210.75 208.34c150.95,0 273.33,122.38 273.33,273.33 0,150.95 -122.38,273.33 -273.33,273.33 -150.95,0 -273.33,-122.38 -273.33,-273.33 0,-150.95 122.38,-273.33 273.33,-273.33zm0 196.23c42.58,0 77.1,34.52 77.1,77.1 0,42.58 -34.52,77.1 -77.1,77.1 -42.58,0 -77.1,-34.52 -77.1,-77.1 0,-42.58 34.52,-77.1 77.1,-77.1z"/>
   <polygon class="fil4" points="2210.75,918.39 2146.18,849.25 2081.62,780.1 2210.75,780.1 2339.87,780.1 2275.31,849.25 "/>
  </g>
 </g>
</svg>
