<?xml version="1.0" standalone="no"?>
<!DOCTYPE svg PUBLIC "-//W3C//DTD SVG 20010904//EN"
 "http://www.w3.org/TR/2001/REC-SVG-20010904/DTD/svg10.dtd">
<svg version="1.0" xmlns="http://www.w3.org/2000/svg"
 width="700.000000pt" height="700.000000pt" viewBox="0 0 700.000000 700.000000"
 preserveAspectRatio="xMidYMid meet">
<metadata>
Created by potrace 1.11, written by Peter Selinger 2001-2013
</metadata>
<g transform="translate(0.000000,700.000000) scale(0.100000,-0.100000)"
fill="#000000" stroke="none">
<path d="M1385 6993 c-40 -3 -158 -19 -225 -29 -228 -37 -504 -153 -659 -279
-33 -27 -151 -143 -177 -176 -62 -76 -136 -201 -183 -309 -47 -108 -101 -312
-115 -435 -4 -27 -11 -81 -15 -120 -11 -79 -9 -4285 1 -4325 4 -14 9 -47 13
-73 6 -47 33 -181 54 -263 66 -263 236 -524 442 -681 172 -132 434 -238 662
-269 15 -2 39 -6 55 -9 15 -3 63 -8 107 -12 101 -10 4201 -10 4310 -1 87 8
290 43 327 57 13 5 26 9 31 9 30 2 188 62 262 99 247 124 425 302 548 548 40
79 100 240 111 299 3 12 11 53 20 92 8 38 17 90 21 115 3 24 8 60 12 79 10 52
13 4275 3 4345 -5 33 -11 82 -15 109 -36 279 -145 550 -300 746 -46 57 -169
170 -238 218 -187 129 -395 203 -727 258 -43 7 -4242 14 -4325 7z"/>
</g>
</svg>
